<svg width="24" height="24" viewBox="0 0 24 24" fill="none" xmlns="http://www.w3.org/2000/svg">
<path d="M8.7925 19C7.25257 19 6 17.7844 6 16.2892C6 14.794 7.25257 13.5778 8.7925 13.5778C9.26229 13.5778 9.721 13.6916 10.1302 13.9089L11.2207 12.85C10.8395 12.275 10.6396 11.6123 10.6396 10.9225C10.6396 10.1709 10.8733 9.4601 11.3186 8.85399L10.435 7.9966C10.2421 8.07357 10.0334 8.11432 9.82359 8.11432C8.9388 8.11432 8.22013 7.41596 8.22013 6.55744C8.22013 5.69779 8.93938 5 9.82359 5C10.7078 5 11.427 5.69779 11.427 6.55744C11.427 6.76061 11.3857 6.96378 11.3058 7.1511L12.1894 8.00906C12.8131 7.57725 13.5458 7.34975 14.3198 7.34975C16.3487 7.34975 18 8.95246 18 10.9225C18 12.8919 16.3487 14.4952 14.3198 14.4952C13.6093 14.4952 12.9268 14.3005 12.3346 13.9315L11.244 14.9904C11.4673 15.3871 11.5844 15.8325 11.5844 16.2892C11.5844 17.7844 10.3318 19 8.7925 19Z" fill="#7E7E7E"/>
</svg>
