<svg width="24" height="24" viewBox="0 0 24 24" fill="none" xmlns="http://www.w3.org/2000/svg">
<path d="M10.3334 9.46667C10.6096 9.46667 10.8334 9.24281 10.8334 8.96667C10.8334 8.69052 10.6096 8.46667 10.3334 8.46667V9.46667ZM15.0333 13.1667C15.0333 12.8905 14.8095 12.6667 14.5333 12.6667C14.2572 12.6667 14.0333 12.8905 14.0333 13.1667H15.0333ZM14.0236 15.3983L13.7966 14.9528L14.0236 15.3983ZM14.4317 14.9904L13.9862 14.7634L14.4317 14.9904ZM8.10173 14.9904L7.65622 15.2174L7.65622 15.2174L8.10173 14.9904ZM8.50951 15.3983L8.7365 14.9528L8.7365 14.9528L8.50951 15.3983ZM8.50951 9.06839L8.7365 9.5139L8.50951 9.06839ZM8.10173 9.47629L8.54723 9.70328L8.10173 9.47629ZM14.5 10.8333C14.5 11.1095 14.7239 11.3333 15 11.3333C15.2761 11.3333 15.5 11.1095 15.5 10.8333H14.5ZM15 8.5H15.5C15.5 8.22386 15.2761 8 15 8V8.5ZM12.6667 8C12.3905 8 12.1667 8.22386 12.1667 8.5C12.1667 8.77614 12.3905 9 12.6667 9V8ZM11.3798 11.4131C11.1845 11.6084 11.1845 11.925 11.3798 12.1202C11.575 12.3155 11.8916 12.3155 12.0869 12.1202L11.3798 11.4131ZM10.3334 8.46667H9.49342V9.46667H10.3334V8.46667ZM7.5 10.46V14.0066H8.5V10.46H7.5ZM9.49342 16H13.0401V15H9.49342V16ZM15.0333 14.0067V13.1667H14.0333V14.0067H15.0333ZM13.0401 16C13.2932 16 13.5131 16.0004 13.6938 15.9856C13.8803 15.9704 14.0686 15.9365 14.2506 15.8438L13.7966 14.9528C13.779 14.9617 13.7369 14.9788 13.6123 14.9889C13.4818 14.9996 13.3097 15 13.0401 15V16ZM14.0333 14.0067C14.0333 14.2763 14.033 14.4485 14.0223 14.5791C14.0121 14.7038 13.9951 14.7459 13.9862 14.7634L14.8772 15.2174C14.97 15.0353 15.0038 14.8469 15.019 14.6603C15.0337 14.4796 15.0333 14.2597 15.0333 14.0067H14.0333ZM14.2506 15.8438C14.5201 15.7065 14.7397 15.4874 14.8772 15.2174L13.9862 14.7634C13.9448 14.8447 13.8784 14.9111 13.7966 14.9528L14.2506 15.8438ZM7.5 14.0066C7.5 14.2598 7.49961 14.4797 7.51438 14.6604C7.52962 14.8469 7.56346 15.0353 7.65622 15.2174L8.54723 14.7634C8.53827 14.7458 8.52125 14.7037 8.51106 14.579C8.50039 14.4484 8.5 14.2763 8.5 14.0066H7.5ZM9.49342 15C9.22383 15 9.05163 14.9996 8.92103 14.9889C8.79623 14.9787 8.75407 14.9617 8.7365 14.9528L8.28251 15.8438C8.46459 15.9365 8.65303 15.9704 8.8396 15.9856C9.02036 16.0004 9.24031 16 9.49342 16V15ZM7.65622 15.2174C7.7936 15.487 8.01274 15.7063 8.28251 15.8438L8.7365 14.9528C8.65504 14.9112 8.58881 14.845 8.54723 14.7634L7.65622 15.2174ZM9.49342 8.46667C9.24031 8.46667 9.02037 8.46628 8.83961 8.48104C8.65305 8.49628 8.4646 8.53011 8.28251 8.62289L8.7365 9.5139C8.75406 9.50495 8.79621 9.48792 8.92102 9.47772C9.05163 9.46706 9.22382 9.46667 9.49342 9.46667V8.46667ZM8.5 10.46C8.5 10.1904 8.50039 10.0182 8.51106 9.8877C8.52124 9.763 8.53826 9.72088 8.54723 9.70328L7.65622 9.24929C7.56346 9.43134 7.52962 9.61971 7.51438 9.80626C7.49961 9.98698 7.5 10.2069 7.5 10.46H8.5ZM8.28251 8.62289C8.01268 8.76037 7.79358 8.97972 7.65622 9.24929L8.54723 9.70328C8.58884 9.62161 8.65509 9.55538 8.7365 9.5139L8.28251 8.62289ZM15.5 10.8333V8.5H14.5V10.8333H15.5ZM15 8H12.6667V9H15V8ZM12.0869 12.1202L15.3536 8.85355L14.6464 8.14645L11.3798 11.4131L12.0869 12.1202Z" fill="#7E7E7E"/>
</svg>
