<svg width="24" height="24" viewBox="0 0 24 24" fill="none" xmlns="http://www.w3.org/2000/svg">
<path fill-rule="evenodd" clip-rule="evenodd" d="M18.3394 11.5978C18.4092 10.7831 18.3183 9.96254 18.0721 9.18308V9.18124C17.0557 5.96525 13.3301 4.60679 10.4474 5.09772C10.3377 5.11755 10.2296 5.14483 10.1236 5.17941L9.73391 5.30373C6.14399 6.68306 4.18989 10.2611 5.3202 13.8437C6.45054 17.4263 10.8317 19.1686 14.1946 18.9872L13.7289 18.4618L13.69 18.4255C13.6096 18.3455 13.5457 18.2504 13.5019 18.1457C13.4581 18.0409 13.4353 17.9286 13.4348 17.8149C13.4343 17.7014 13.4561 17.5888 13.499 17.4836C13.5418 17.3785 13.6049 17.2829 13.6846 17.2022C13.7817 17.1095 13.8986 17.0403 14.0264 16.9998H14.0318C14.8086 16.7529 15.5293 16.3548 16.1528 15.8282C16.7762 15.3018 17.2902 14.6571 17.6654 13.9313C18.0406 13.2054 18.2696 12.4125 18.3394 11.5978ZM16.2102 12.6296V12.018C16.209 12.0162 16.2075 12.0147 16.2057 12.0134C16.2046 12.0123 16.2033 12.0113 16.2018 12.0107C16.2003 12.01 16.1987 12.0097 16.1971 12.0097C16.1955 12.0097 16.1939 12.01 16.1924 12.0107C16.1909 12.0113 16.1896 12.0123 16.1885 12.0134C13.8275 14.2022 11.3833 14.7966 8.82151 12.9127L9.71309 12.0053L6.84842 11.4018L7.48138 14.2685L8.26268 13.4762C10.9763 15.4763 13.709 15.1133 15.8277 13.3683C15.9423 13.2816 16.0362 13.1703 16.1024 13.0424C16.1685 12.9146 16.2054 12.7736 16.2102 12.6296Z" fill="#7E7E7E"/>
</svg>
