<svg width="24" height="24" viewBox="0 0 24 24" fill="none" xmlns="http://www.w3.org/2000/svg">
<path d="M17.5537 8.61764L14.6408 5.48572C14.3542 5.17709 13.9595 5 13.5555 5L6.53632 5C5.69064 5 5 5.74377 5 6.6545L5 14.2085C5 14.6487 5.16444 15.0687 5.45103 15.3824L8.35923 18.5143C8.64583 18.8229 9.04048 19 9.44922 19L16.4637 19C17.3141 19 18 18.2562 18 17.3455L18 9.79147C18 9.35128 17.8403 8.93133 17.549 8.6227L17.5537 8.61764ZM13.5555 5.75894C13.7763 5.75894 13.9877 5.85508 14.1428 6.02205L16.7973 8.88074L14.8945 8.88074L11.9957 5.75894L13.5508 5.75894L13.5555 5.75894ZM10.9996 5.75894L13.8984 8.88074L11.9957 8.88074L9.09686 5.75894L10.9996 5.75894ZM12.0286 9.63968L13.7763 9.63968C11.8171 10.6263 10.2244 12.3415 9.30828 14.4514L9.30828 12.6198C9.88616 11.4814 10.9057 10.3683 12.0286 9.64474L12.0286 9.63968ZM9.30828 11.2486L9.30828 10.0394C9.30828 9.82183 9.47271 9.64474 9.67474 9.64474L10.7882 9.64474C10.2338 10.1203 9.72642 10.6668 9.30828 11.2537L9.30828 11.2486ZM8.60354 17.7047L5.94904 14.846C5.794 14.6791 5.70473 14.4514 5.70473 14.2085L5.70473 12.5389L8.60354 15.6606L8.60354 17.7047ZM8.60354 14.588L5.70473 11.4662L5.70473 9.41706L8.60354 12.5389L8.60354 14.588ZM8.60354 10.0394L8.60354 11.4713L5.70473 8.34442L5.70473 6.6545C5.70473 6.54825 5.72353 6.44705 5.75641 6.35092L8.7116 9.53343C8.64113 9.68522 8.60354 9.85219 8.60354 10.0343L8.60354 10.0394ZM6.25443 5.8146C6.34369 5.77918 6.43766 5.75894 6.53632 5.75894L8.09613 5.75894L10.9949 8.88074L9.67474 8.88074C9.5056 8.88074 9.35056 8.92627 9.20961 8.99711L6.25443 5.8146ZM9.30828 17.7958L9.30828 17.1937C9.30828 16.9711 9.32707 16.7535 9.37405 16.536C10.0976 13.2017 12.5548 10.5302 15.6462 9.7257C15.8905 9.65992 16.1442 9.63968 16.3979 9.63968L16.8677 9.63968C17.1073 9.63968 17.3 9.84713 17.3 10.1052L17.3 11.1222C13.6635 11.3094 10.6755 14.3401 10.2902 18.2411L9.72642 18.2411C9.5009 18.2411 9.31297 18.0387 9.31297 17.7958L9.30828 17.7958ZM14.3542 18.2411L12.94 18.2411C13.5978 16.2172 15.3032 14.8106 17.3 14.6639L17.3 16.536C16.0972 16.6422 15.0072 17.2696 14.3589 18.2461L14.3542 18.2411ZM12.2024 18.2411L10.9996 18.2411C11.3802 14.7651 14.0488 12.0683 17.3 11.8811L17.3 13.8999C14.918 14.0567 12.893 15.7821 12.2024 18.236L12.2024 18.2411ZM16.4637 18.2411L15.2844 18.2411C15.8059 17.7098 16.5201 17.3708 17.3 17.2898L17.3 17.3404C17.3 17.8363 16.9288 18.236 16.4684 18.236L16.4637 18.2411Z" fill="#7E7E7E"/>
</svg>
