<svg width="12" height="14" viewBox="0 0 12 14" fill="none" xmlns="http://www.w3.org/2000/svg">
<path d="M2.7925 14C1.25257 14 0 12.7844 0 11.2892C0 9.794 1.25257 8.57782 2.7925 8.57782C3.26229 8.57782 3.721 8.69157 4.13017 8.90889L5.22071 7.85003C4.83952 7.27504 4.6396 6.61234 4.6396 5.92247C4.6396 5.17091 4.87332 4.4601 5.31863 3.85399L4.43501 2.9966C4.24208 3.07357 4.03342 3.11432 3.82359 3.11432C2.9388 3.11432 2.22013 2.41596 2.22013 1.55744C2.22013 0.697793 2.93938 0 3.82359 0C4.70779 0 5.42704 0.697793 5.42704 1.55744C5.42704 1.76061 5.38566 1.96378 5.30581 2.1511L6.18943 3.00906C6.8131 2.57725 7.54575 2.34975 8.3198 2.34975C10.3487 2.34975 12 3.95246 12 5.92247C12 7.89191 10.3487 9.49519 8.3198 9.49519C7.60929 9.49519 6.92675 9.30051 6.33456 8.93152L5.24403 9.99038C5.46726 10.3871 5.58442 10.8325 5.58442 11.2892C5.58442 12.7844 4.33184 14 2.7925 14Z" fill="#EAEAEA"/>
</svg>
