<?xml version="1.0" encoding="UTF-8"?>
<svg id="Warstwa_1" xmlns="http://www.w3.org/2000/svg" version="1.1" viewBox="0 0 22 20">
  <!-- Generator: Adobe Illustrator 29.5.1, SVG Export Plug-In . SVG Version: 2.1.0 Build 141)  -->
  <defs>
    <style>
      .st0 {
        fill: #fff;
      }
    </style>
  </defs>
  <path class="st0" d="M6.5,1.8h5c2.6,0,4.8,2.1,4.8,4.8s-2.1,4.8-4.8,4.8h-2.5c-.4,0-.8.3-.8.8s.3.8.8.8h2.5c3.4,0,6.2-2.8,6.2-6.2S14.9.3,11.5.3h-5C3.1.3.2,3.1.2,6.5s.5,2.9,1.4,4c.3.3.7.4,1.1,0,.3-.3.4-.7,0-1.1-.7-.9-1.1-1.9-1.1-3C1.8,3.9,3.9,1.8,6.5,1.8Z"/>
  <path class="st0" d="M20.3,9.5c-.3-.3-.7-.4-1.1,0-.3.3-.4.7,0,1.1.7.9,1.1,1.9,1.1,3,0,2.6-2.1,4.8-4.8,4.8h-5c-2.6,0-4.8-2.1-4.8-4.8s2.1-4.8,4.8-4.8h2.5c.4,0,.8-.3.8-.8s-.3-.8-.8-.8h-2.5c-3.4,0-6.2,2.8-6.2,6.2s2.8,6.2,6.2,6.2h5c3.4,0,6.2-2.8,6.2-6.2s-.5-2.9-1.4-4Z"/>
</svg>