<?xml version="1.0" encoding="UTF-8"?>
<svg id="Warstwa_1" xmlns="http://www.w3.org/2000/svg" version="1.1" viewBox="0 0 24 24">
  <!-- Generator: Adobe Illustrator 29.4.0, SVG Export Plug-In . SVG Version: 2.1.0 Build 49)  -->
  <defs>
    <style>
      .st0 {
        fill: none;
        stroke: #fff;
        stroke-linecap: round;
        stroke-linejoin: round;
        stroke-width: 2px;
      }
    </style>
  </defs>
  <path class="st0" d="M6.7,9.3l5.3,3.1,5.3-3"/>
  <path class="st0" d="M12,17.8v-5.5"/>
  <path class="st0" d="M10.8,6.3l-3.2,1.8c-.7.4-1.3,1.4-1.3,2.2v3.4c0,.8.6,1.8,1.3,2.2l3.2,1.8c.7.4,1.8.4,2.5,0l3.2-1.8c.7-.4,1.3-1.4,1.3-2.2v-3.4c0-.8-.6-1.8-1.3-2.2l-3.2-1.8c-.7-.4-1.8-.4-2.5,0Z"/>
  <path class="st0" d="M22,15c0,3.9-3.1,7-7,7l1-1.8"/>
  <path class="st0" d="M2,9c0-3.9,3.1-7,7-7l-1,1.8"/>
</svg>