<?xml version="1.0" encoding="UTF-8"?>
<svg id="Warstwa_1" xmlns="http://www.w3.org/2000/svg" version="1.1" viewBox="0 0 22 20">
  <!-- Generator: Adobe Illustrator 29.5.1, SVG Export Plug-In . SVG Version: 2.1.0 Build 141)  -->
  <defs>
    <style>
      .st0 {
        fill: #fff;
      }
    </style>
  </defs>
  <path class="st0" d="M21,8.8c.4,0,.8-.3.8-.8v-1c0-4.4-1.3-5.8-5.8-5.8H6C1.6,1.3.2,2.6.2,7v.5c0,.4.3.8.8.8,1,0,1.8.8,1.8,1.8s-.8,1.8-1.8,1.8-.8.3-.8.8v.5c0,4.4,1.3,5.8,5.8,5.8h10c4.4,0,5.8-1.3,5.8-5.8s-.3-.8-.8-.8c-1,0-1.8-.8-1.8-1.8s.8-1.8,1.8-1.8ZM20.2,13.7c0,3-.9,3.6-4.2,3.6H6c-3.5,0-4.2-.7-4.2-4.1,1.4-.3,2.5-1.6,2.5-3.2s-1.1-2.8-2.5-3.2c0-3.4.7-4.1,4.2-4.1h10c3.6,0,4.2.7,4.2,4.2v.3c-1.4.3-2.5,1.6-2.5,3.2s1.1,2.8,2.5,3.2Z"/>
  <path class="st0" d="M14.5,6.2c-.3-.3-.8-.3-1.1,0l-6,6c-.3.3-.3.8,0,1.1s.3.2.5.2.4,0,.5-.2l6-6c.3-.3.3-.8,0-1.1Z"/>
  <path class="st0" d="M14,11.8h0c-.6,0-1,.4-1,1s.5,1,1,1,1-.4,1-1-.4-1-1-1Z"/>
  <path class="st0" d="M8,8.3c.6,0,1-.4,1-1s-.4-1-1-1h0c-.6,0-1,.4-1,1s.5,1,1,1Z"/>
</svg>