<svg width="682" height="681" viewBox="0 0 682 681" fill="none" xmlns="http://www.w3.org/2000/svg">
<g clip-path="url(#clip0_4360_23193)">
<path fill-rule="evenodd" clip-rule="evenodd" d="M339.999 0C403.325 0.722628 460.534 16.2862 511.625 46.6909C562.108 76.4885 604.101 118.739 633.59 169.402C663.81 220.801 679.28 278.357 680 342.068C678.205 429.241 650.71 503.695 597.515 565.43C544.32 627.166 476.19 665.359 405.662 680V435.595H472.34L487.419 339.55H386.453V276.643C385.892 263.601 390.016 250.79 398.08 240.525C406.154 230.232 420.373 224.822 440.737 224.295H501.707V140.161C500.832 139.88 492.531 138.767 476.804 136.822C458.968 134.735 441.031 133.621 423.073 133.483C382.43 133.671 350.286 145.136 326.643 167.878C302.998 190.613 290.92 223.507 290.408 266.559V339.55H213.572V435.595H290.408V680C203.81 665.359 135.679 627.166 82.4839 565.43C29.2886 503.695 1.79495 429.241 0 342.068C0.718144 278.354 16.1876 220.799 46.4085 169.402C75.8982 118.739 117.892 76.4885 168.375 46.6909C219.465 16.2921 276.673 0.728482 339.999 0Z" fill="white"/>
</g>
<defs>
<clipPath id="clip0_4360_23193">
<rect width="681" height="681" fill="white" transform="translate(0.5)"/>
</clipPath>
</defs>
</svg>
