<svg width="9" height="9" viewBox="0 0 9 9" fill="none" xmlns="http://www.w3.org/2000/svg">
<path d="M7.9015 4.31061C7.9015 2.3279 6.29234 0.71875 4.30964 0.71875C2.32693 0.71875 0.717773 2.3279 0.717773 4.31061C0.717773 6.29332 2.32693 7.90248 4.30964 7.90248" stroke="white" stroke-width="0.538779" stroke-linecap="round" stroke-linejoin="round"/>
<path d="M2.87315 1.07812H3.23234C2.53193 3.17577 2.53193 5.44583 3.23234 7.54348H2.87315" stroke="white" stroke-width="0.538779" stroke-linecap="round" stroke-linejoin="round"/>
<path d="M5.3877 1.07812C5.73611 2.12695 5.91211 3.21888 5.91211 4.3108" stroke="white" stroke-width="0.538779" stroke-linecap="round" stroke-linejoin="round"/>
<path d="M1.07715 5.74737V5.38818C2.12597 5.73659 3.2179 5.9126 4.30983 5.9126" stroke="white" stroke-width="0.538779" stroke-linecap="round" stroke-linejoin="round"/>
<path d="M1.07715 3.23332C3.1748 2.5329 5.44485 2.5329 7.5425 3.23332" stroke="white" stroke-width="0.538779" stroke-linecap="round" stroke-linejoin="round"/>
<path d="M6.53709 7.6865C7.17188 7.6865 7.68649 7.17189 7.68649 6.5371C7.68649 5.9023 7.17188 5.3877 6.53709 5.3877C5.9023 5.3877 5.3877 5.9023 5.3877 6.5371C5.3877 7.17189 5.9023 7.6865 6.53709 7.6865Z" stroke="white" stroke-width="0.538779" stroke-linecap="round" stroke-linejoin="round"/>
<path d="M7.90167 7.90167L7.54248 7.54248" stroke="white" stroke-width="0.538779" stroke-linecap="round" stroke-linejoin="round"/>
</svg>
