<svg width="482" height="108" viewBox="0 0 482 108" fill="none" xmlns="http://www.w3.org/2000/svg">
<g clip-path="url(#clip0_4418_22880)">
<path d="M8.5415 55.7677C8.5415 57.0856 9.08247 58.3474 10.022 59.2727L26.1086 75.1156V65.1332L8.5415 47.8322V55.7677Z" fill="white"/>
<path d="M8.5415 41.8877L26.1086 59.1886V46.4022L8.5415 29.1012V41.8877Z" fill="white"/>
<path d="M32.6002 30.4191C31.3759 30.4191 30.3794 31.4005 30.3794 32.6063V38.8873C32.9703 35.8029 35.846 32.9708 38.9779 30.4191H32.6002Z" fill="white"/>
<path d="M30.3794 57.0856C35.9314 45.3927 45.5834 35.887 57.4561 30.4191H46.0959C39.9175 34.6252 34.6502 39.8127 30.3794 45.8694V57.0575V57.0856Z" fill="white"/>
<path d="M8.5415 13.8753V23.1286L26.1086 40.4296V32.6063C26.1086 31.5968 26.3649 30.6715 26.7635 29.8303L8.85469 12.1928C8.65539 12.7256 8.5415 13.2864 8.5415 13.8753Z" fill="white"/>
<path d="M75.7637 26.2131L59.6771 10.3702C58.7375 9.44488 57.4563 8.91211 56.1181 8.91211H49.1995L66.7666 26.2131H75.7922H75.7637Z" fill="white"/>
<path d="M60.7306 26.2131L43.135 8.91211H31.49L49.0856 26.2131H60.7306Z" fill="white"/>
<path d="M83.3656 21.7827L65.713 4.39761C63.1506 1.87398 59.734 0.471954 56.118 0.471954H13.5811C6.09298 0.499995 0 6.50065 0 13.8753V55.7396C0 59.3288 1.42359 62.6656 3.98606 65.2173L21.6101 82.5743C24.1726 85.098 27.5892 86.5 31.2336 86.5H73.7421C81.2302 86.5 87.3232 80.4993 87.3232 73.1247V31.2603C87.3232 27.6992 85.8996 24.3344 83.3371 21.8107L83.3656 21.7827ZM83.0524 73.1247C83.0524 78.2 78.867 82.2939 73.7421 82.2939H31.2336C28.7566 82.2939 26.3934 81.3405 24.6282 79.602L7.00408 62.245C5.26729 60.5346 4.27078 58.1792 4.27078 55.7396V13.8753C4.27078 8.79996 8.45614 4.70606 13.5811 4.70606H56.0896C58.5666 4.70606 60.9013 5.65943 62.6666 7.39794L80.3191 24.783C82.0844 26.5215 83.0524 28.8208 83.0524 31.2603V73.1247Z" fill="white"/>
<path d="M43.0493 26.2131L25.4822 8.91211H13.6094C13.0115 8.91211 12.4421 9.02427 11.9011 9.22055L29.8099 26.858C30.6641 26.4374 31.6036 26.2131 32.6286 26.2131H43.0493Z" fill="white"/>
<path d="M40.6008 78.0879H47.8896C52.075 64.4602 64.3464 54.9265 78.7816 54.0572V42.8691C59.0791 43.8785 42.8786 58.8241 40.6008 78.1159V78.0879Z" fill="white"/>
<path d="M76.1622 30.4191H73.1157C71.7206 30.4191 70.3255 30.5313 68.9873 30.8678C50.2813 35.2701 35.3621 49.9353 30.8635 68.3298C30.5218 69.7318 30.408 71.1899 30.408 72.62V75.6203C30.408 76.9943 31.5468 78.0879 32.9135 78.0879H36.3301C38.6648 56.4687 56.7729 39.6725 78.8101 38.635V32.9988C78.8101 31.5688 77.6428 30.4191 76.1907 30.4191H76.1622Z" fill="white"/>
<path d="M52.3881 78.0879H60.9581C64.9157 72.6761 71.4927 69.199 78.7815 68.6102V58.2352C66.681 59.0764 56.3457 66.8717 52.3596 78.0598L52.3881 78.0879Z" fill="white"/>
<path d="M73.742 78.0879C76.5323 78.0879 78.7816 75.8727 78.7816 73.1247V72.8443C74.0552 73.2929 69.7275 75.1717 66.5671 78.1159H73.7136L73.742 78.0879Z" fill="white"/>
<path d="M141.676 48.5332L134.957 33.1671H128.778L122.315 48.6454L116.478 28.4283H105.374L116.877 62.8058H124.621L131.825 45.3927L138.943 62.8058H146.715L158.588 28.4283H147.484L141.676 48.5332Z" fill="white"/>
<path d="M189.167 30.0546C186.348 28.5124 183.102 27.7273 179.487 27.7273C175.871 27.7273 172.625 28.5124 169.806 30.0546C166.987 31.5968 164.738 33.7279 163.115 36.3918C161.464 39.0556 160.638 42.112 160.638 45.589C160.638 49.066 161.464 52.0944 163.115 54.7863C164.767 57.4501 166.987 59.5812 169.806 61.1234C172.625 62.6656 175.871 63.4508 179.487 63.4508C183.102 63.4508 186.348 62.6656 189.167 61.1234C191.986 59.5812 194.207 57.4501 195.829 54.7863C197.452 52.1224 198.249 49.066 198.249 45.589C198.249 42.112 197.424 39.0836 195.829 36.3918C194.207 33.7279 191.986 31.5968 189.167 30.0546ZM186.576 50.1876C185.864 51.5336 184.925 52.5711 183.7 53.3562C182.476 54.1413 181.081 54.5339 179.487 54.5339C177.892 54.5339 176.497 54.1413 175.244 53.3562C173.991 52.5711 173.023 51.5336 172.312 50.1876C171.6 48.8417 171.287 47.3275 171.315 45.589C171.258 43.8786 171.6 42.3083 172.312 40.9623C173.023 39.6164 173.991 38.5228 175.244 37.7657C176.497 36.9806 177.892 36.588 179.487 36.588C181.081 36.588 182.476 36.9806 183.7 37.7657C184.925 38.5509 185.893 39.6164 186.576 40.9623C187.259 42.3083 187.601 43.8786 187.573 45.589C187.601 47.3275 187.288 48.8417 186.576 50.1876Z" fill="white"/>
<path d="M231.277 30.0546C228.458 28.5124 225.212 27.7273 221.596 27.7273C217.98 27.7273 214.735 28.5124 211.916 30.0546C209.097 31.5968 206.848 33.7279 205.225 36.3918C203.574 39.0556 202.748 42.112 202.748 45.589C202.748 49.066 203.574 52.0944 205.225 54.7863C206.876 57.4501 209.097 59.5812 211.916 61.1234C214.735 62.6656 217.98 63.4508 221.596 63.4508C225.212 63.4508 228.458 62.6656 231.277 61.1234C234.096 59.5812 236.316 57.4501 237.939 54.7863C239.562 52.1224 240.359 49.066 240.359 45.589C240.359 42.112 239.534 39.0836 237.939 36.3918C236.316 33.7279 234.096 31.5968 231.277 30.0546ZM228.686 50.1876C227.974 51.5336 227.035 52.5711 225.81 53.3562C224.586 54.1413 223.191 54.5339 221.596 54.5339C220.002 54.5339 218.607 54.1413 217.354 53.3562C216.101 52.5711 215.133 51.5336 214.422 50.1876C213.71 48.8417 213.397 47.3275 213.425 45.589C213.368 43.8786 213.71 42.3083 214.422 40.9623C215.133 39.6164 216.101 38.5228 217.354 37.7657C218.607 36.9806 220.002 36.588 221.596 36.588C223.191 36.588 224.586 36.9806 225.81 37.7657C227.035 38.5509 228.003 39.6164 228.686 40.9623C229.369 42.3083 229.711 43.8786 229.682 45.589C229.711 47.3275 229.398 48.8417 228.686 50.1876Z" fill="white"/>
<path d="M270.796 31.8212C270.283 31.3164 269.714 30.8397 269.088 30.3911C267.892 29.5779 266.582 28.933 265.158 28.4563C263.706 27.9796 262.197 27.7553 260.631 27.7553C257.556 27.7553 254.852 28.5404 252.488 30.0827C250.125 31.6249 248.246 33.7559 246.908 36.4478C245.541 39.1397 244.886 42.2242 244.886 45.6731C244.886 49.1221 245.57 52.2066 246.908 54.8984C248.246 57.5903 250.125 59.6933 252.46 61.2356C254.795 62.7778 257.471 63.5349 260.518 63.5349C262.14 63.5349 263.678 63.3106 265.158 62.8619C266.61 62.4133 267.92 61.7964 269.059 61.0393C269.97 60.4504 270.682 59.7494 271.337 58.9923L271.622 62.8058H281.416V14.9128H270.853V31.7931L270.796 31.8212ZM270.113 50.4961C269.486 51.8701 268.575 52.9636 267.379 53.7207C266.183 54.5059 264.788 54.8984 263.165 54.8984C261.543 54.8984 260.147 54.5059 258.98 53.7207C257.813 52.9356 256.902 51.8701 256.247 50.4961C255.592 49.1221 255.25 47.4958 255.25 45.6451C255.25 43.7944 255.592 42.112 256.247 40.738C256.902 39.364 257.813 38.2705 258.98 37.5134C260.147 36.7282 261.543 36.3357 263.165 36.3357C264.788 36.3357 266.183 36.7282 267.379 37.5134C268.575 38.2985 269.458 39.364 270.113 40.738C270.739 42.112 271.052 43.7664 271.052 45.6451C271.052 47.5238 270.739 49.1221 270.113 50.4961Z" fill="white"/>
<path d="M316.579 30.5033C314.158 28.9891 311.397 28.232 308.293 28.232C306.414 28.232 304.592 28.5965 302.798 29.3536C301.033 30.1107 299.524 31.0921 298.3 32.2698C297.816 32.7185 297.445 33.1952 297.104 33.6718V28.7928H290.271V76.9943H297.104V58.2913C297.332 58.5437 297.559 58.7961 297.816 59.0484C299.125 60.3102 300.72 61.3197 302.599 62.1329C304.478 62.918 306.443 63.3386 308.436 63.3386C311.454 63.3386 314.158 62.5815 316.579 61.0393C318.999 59.4971 320.878 57.4221 322.273 54.7582C323.668 52.0944 324.351 49.0941 324.351 45.7292C324.351 42.3644 323.64 39.308 322.244 36.6722C320.849 34.0364 318.942 31.9614 316.522 30.4752L316.579 30.5033ZM316.522 51.6738C315.61 53.4123 314.358 54.7582 312.792 55.7397C311.226 56.7211 309.404 57.2258 307.411 57.2258C305.418 57.2258 303.538 56.7211 301.944 55.7397C300.35 54.7582 299.125 53.3843 298.186 51.6738C297.275 49.9633 296.819 48.0005 296.819 45.7853C296.819 43.5701 297.275 41.6353 298.186 39.8968C299.097 38.1863 300.35 36.8124 301.944 35.859C303.51 34.8776 305.332 34.4009 307.411 34.4009C309.489 34.4009 311.283 34.9056 312.877 35.887C314.443 36.8684 315.696 38.2144 316.579 39.9249C317.49 41.6353 317.917 43.5701 317.917 45.7853C317.917 48.0005 317.461 49.9633 316.55 51.6738H316.522Z" fill="white"/>
<path d="M356.211 30.4191C353.563 28.8769 350.574 28.1198 347.243 28.1198C343.911 28.1198 340.865 28.8769 338.217 30.4191C335.569 31.9613 333.462 34.0363 331.953 36.7002C330.416 39.364 329.647 42.3924 329.647 45.7853C329.647 49.1782 330.416 52.2346 331.953 54.8704C333.491 57.5342 335.569 59.6092 338.217 61.1514C340.865 62.6937 343.883 63.4508 347.243 63.4508C350.602 63.4508 353.563 62.6937 356.211 61.1514C358.859 59.6092 360.966 57.5342 362.475 54.8704C364.012 52.2065 364.781 49.1782 364.781 45.7853C364.781 42.3924 364.012 39.336 362.475 36.7002C360.938 34.0363 358.859 31.9613 356.211 30.4191ZM356.581 51.7018C355.67 53.4403 354.389 54.8423 352.766 55.8518C351.143 56.8612 349.293 57.366 347.243 57.366C345.193 57.366 343.342 56.8612 341.691 55.8518C340.039 54.8423 338.758 53.4684 337.847 51.7018C336.936 49.9633 336.48 47.9724 336.537 45.7853C336.48 43.5981 336.936 41.6073 337.847 39.8688C338.758 38.1302 340.039 36.7282 341.691 35.7188C343.342 34.7093 345.193 34.2046 347.243 34.2046C349.293 34.2046 351.143 34.7093 352.766 35.6907C354.389 36.6721 355.642 38.0461 356.581 39.7846C357.521 41.5231 357.948 43.514 357.891 45.7572C357.92 47.9724 357.492 49.9353 356.581 51.6738V51.7018Z" fill="white"/>
<path d="M402.677 51.9542L394.478 34.2046H390.406L382.149 52.2065L374.376 28.7647L367.543 28.8208L379.302 62.8058H383.915L392.171 43.0373L400.941 62.8058H405.582L417.227 28.8208H410.393L402.677 51.9542Z" fill="white"/>
<path d="M449.172 32.7745C447.748 31.3164 446.069 30.1668 444.132 29.3256C442.196 28.4844 440.118 28.0638 437.897 28.0638C435.363 28.0638 433 28.5124 430.836 29.3817C428.672 30.2509 426.793 31.5127 425.256 33.1391C423.69 34.7654 422.494 36.6722 421.611 38.8593C420.729 41.0745 420.302 43.486 420.302 46.1779C420.302 49.5427 421.07 52.515 422.636 55.0947C424.202 57.6744 426.338 59.7214 429.071 61.2075C431.804 62.6937 434.965 63.4508 438.495 63.4508C440.118 63.4508 441.769 63.2264 443.449 62.7778C445.129 62.3292 446.723 61.7123 448.232 60.9271C449.741 60.142 451.023 59.2447 452.076 58.2072L448.66 53.4964C446.951 54.9545 445.357 55.964 443.905 56.5248C442.424 57.0856 440.858 57.366 439.15 57.366C436.73 57.366 434.623 56.8893 432.772 55.9359C430.922 54.9826 429.498 53.6366 428.501 51.8981C427.733 50.5802 427.277 49.066 427.078 47.4116H453.471L453.528 44.5515C453.557 42.1681 453.215 39.9809 452.446 37.9901C451.678 35.9992 450.596 34.2607 449.172 32.7745ZM431.947 35.5225C433.569 34.6252 435.562 34.2046 437.926 34.2046C439.406 34.2046 440.801 34.5411 442.054 35.186C443.335 35.8309 444.389 36.7282 445.214 37.8499C446.04 38.9715 446.524 40.2333 446.666 41.6634V42.112H427.391C427.59 41.1306 427.875 40.2333 428.274 39.4201C429.099 37.7097 430.324 36.4198 431.947 35.5505V35.5225Z" fill="white"/>
<path d="M480.377 28.3161C479.694 28.1759 478.982 28.1198 478.242 28.1198C476.619 28.1198 475.053 28.5124 473.544 29.2975C472.035 30.0826 470.697 31.1201 469.529 32.4661C468.761 33.3634 468.191 34.3448 467.736 35.3542V28.8489H460.902V62.8058H467.736V44.0468C467.736 42.785 467.963 41.6353 468.447 40.5978C468.931 39.5323 469.586 38.6069 470.383 37.8218C471.181 37.0367 472.149 36.3917 473.202 35.9431C474.284 35.4944 475.395 35.2701 476.59 35.2701C477.188 35.2701 477.815 35.3542 478.469 35.4944C479.124 35.6346 479.694 35.8309 480.206 36.0553L481.971 28.8208C481.573 28.6526 481.032 28.4843 480.349 28.3722L480.377 28.3161Z" fill="white"/>
</g>
<path d="M417.627 86.644C417.627 84.7027 418.047 82.976 418.887 81.464C419.727 79.9333 420.894 78.748 422.387 77.908C423.899 77.0493 425.607 76.62 427.511 76.62C429.844 76.62 431.842 77.236 433.503 78.468C435.164 79.7 436.275 81.38 436.835 83.508H431.571C431.179 82.6867 430.619 82.0613 429.891 81.632C429.182 81.2027 428.37 80.988 427.455 80.988C425.98 80.988 424.786 81.5013 423.871 82.528C422.956 83.5547 422.499 84.9267 422.499 86.644C422.499 88.3613 422.956 89.7333 423.871 90.76C424.786 91.7867 425.98 92.3 427.455 92.3C428.37 92.3 429.182 92.0853 429.891 91.656C430.619 91.2267 431.179 90.6013 431.571 89.78H436.835C436.275 91.908 435.164 93.588 433.503 94.82C431.842 96.0333 429.844 96.64 427.511 96.64C425.607 96.64 423.899 96.22 422.387 95.38C420.894 94.5213 419.727 93.336 418.887 91.824C418.047 90.312 417.627 88.5853 417.627 86.644ZM449.791 96.5L445.703 89.08H444.555V96.5H439.767V76.844H447.803C449.353 76.844 450.669 77.1147 451.751 77.656C452.853 78.1973 453.674 78.944 454.215 79.896C454.757 80.8293 455.027 81.8747 455.027 83.032C455.027 84.3387 454.654 85.5053 453.907 86.532C453.179 87.5587 452.097 88.2867 450.659 88.716L455.195 96.5H449.791ZM444.555 85.692H447.523C448.401 85.692 449.054 85.4773 449.483 85.048C449.931 84.6187 450.155 84.012 450.155 83.228C450.155 82.4813 449.931 81.8933 449.483 81.464C449.054 81.0347 448.401 80.82 447.523 80.82H444.555V85.692ZM480.293 76.844V96.5H475.505V84.712L471.109 96.5H467.245L462.821 84.684V96.5H458.033V76.844H463.689L469.205 90.452L474.665 76.844H480.293Z" fill="white"/>
<defs>
<clipPath id="clip0_4418_22880">
<rect width="482" height="86" fill="white" transform="translate(0 0.5)"/>
</clipPath>
</defs>
</svg>
