<?xml version="1.0" encoding="UTF-8"?>
<svg id="Warstwa_1" xmlns="http://www.w3.org/2000/svg" version="1.1" viewBox="0 0 24 24">
  <!-- Generator: Adobe Illustrator 29.7.1, SVG Export Plug-In . SVG Version: 2.1.1 Build 8)  -->
  <defs>
    <style>
      .st0 {
        fill: #fff;
      }
    </style>
  </defs>
  <path class="st0" d="M12,22.7c-5.9,0-10.8-4.8-10.8-10.7S6.1,1.3,12,1.3s10.8,4.8,10.8,10.8-4.8,10.7-10.8,10.7ZM12,2.8C6.9,2.8,2.8,6.9,2.8,12s4.1,9.2,9.2,9.2,9.2-4.1,9.2-9.2S17.1,2.8,12,2.8ZM12.8,16v-5c0-.4-.3-.8-.8-.8s-.8.3-.8.8v5c0,.4.3.8.8.8s.8-.3.8-.8ZM13,8c0-.6-.4-1-1-1h0c-.6,0-1,.4-1,1s.5,1,1,1,1-.4,1-1Z"/>
</svg>