<svg width="184" height="39" viewBox="0 0 184 39" fill="none" xmlns="http://www.w3.org/2000/svg">
<path d="M52.8362 17.495L50.2353 11.3443L47.8538 11.3443L45.3737 17.5399L43.124 9.46216L38.844 9.46216L43.2776 23.1864L46.2626 23.1864L49.0281 16.2291L51.7826 23.1864L54.7676 23.1864L59.3549 9.46216L55.0749 9.46216L52.8362 17.495Z" fill="#1F2020"/>
<path d="M71.1407 10.1095C70.0543 9.49326 68.8032 9.17957 67.4095 9.17957C66.0158 9.17957 64.7647 9.49326 63.6782 10.1095C62.5918 10.7256 61.7248 11.5771 61.0993 12.6414C60.4628 13.7058 60.1445 14.9269 60.1445 16.3162C60.1445 17.7054 60.4628 18.9154 61.0993 19.9909C61.7358 21.0552 62.5918 21.9067 63.6782 22.5229C64.7647 23.1391 66.0158 23.4528 67.4095 23.4528C68.8032 23.4528 70.0543 23.1391 71.1407 22.5229C72.2272 21.9067 73.0832 21.0552 73.7087 19.9909C74.3342 18.9266 74.6415 17.7054 74.6415 16.3162C74.6415 14.9269 74.3342 13.717 73.7087 12.6414C73.0832 11.5771 72.2272 10.7256 71.1407 10.1095ZM70.1421 18.1423C69.8677 18.6801 69.5056 19.0946 69.0227 19.4083C68.5508 19.722 68.0131 19.8789 67.3985 19.8789C66.7839 19.8789 66.2462 19.722 65.7633 19.4083C65.2805 19.0946 64.9074 18.6801 64.633 18.1423C64.3586 17.6046 64.2379 16.9996 64.2489 16.305C64.227 15.6216 64.3586 14.9942 64.633 14.4564C64.9074 13.9186 65.2805 13.4817 65.7633 13.1792C66.2462 12.8655 66.7839 12.7087 67.3985 12.7087C68.0131 12.7087 68.5508 12.8655 69.0227 13.1792C69.4946 13.4929 69.8677 13.9186 70.1421 14.4564C70.4164 14.9942 70.5371 15.6216 70.5262 16.305C70.5481 16.9996 70.4164 17.6046 70.1421 18.1423Z" fill="#1F2020"/>
<path d="M87.3707 10.1095C86.2843 9.49326 85.0332 9.17957 83.6395 9.17957C82.2457 9.17957 80.9947 9.49326 79.9082 10.1095C78.8218 10.7256 77.9548 11.5771 77.3293 12.6414C76.6928 13.7058 76.3745 14.9269 76.3745 16.3162C76.3745 17.7054 76.6928 18.9154 77.3293 19.9909C77.9658 21.0552 78.8218 21.9067 79.9082 22.5229C80.9947 23.1391 82.2457 23.4528 83.6395 23.4528C85.0332 23.4528 86.2843 23.1391 87.3707 22.5229C88.4572 21.9067 89.3131 21.0552 89.9387 19.9909C90.5642 18.9266 90.8715 17.7054 90.8715 16.3162C90.8715 14.9269 90.5642 13.717 89.9387 12.6414C89.3131 11.5771 88.4572 10.7256 87.3707 10.1095ZM86.372 18.1423C86.0977 18.6801 85.7355 19.0946 85.2527 19.4083C84.7808 19.722 84.243 19.8789 83.6285 19.8789C83.0139 19.8789 82.4762 19.722 81.9933 19.4083C81.5105 19.0946 81.1373 18.6801 80.863 18.1423C80.5886 17.6046 80.4679 16.9996 80.4789 16.305C80.4569 15.6216 80.5886 14.9942 80.863 14.4564C81.1373 13.9186 81.5105 13.4817 81.9933 13.1792C82.4762 12.8655 83.0139 12.7087 83.6285 12.7087C84.243 12.7087 84.7808 12.8655 85.2527 13.1792C85.7246 13.4929 86.0977 13.9186 86.372 14.4564C86.6464 14.9942 86.7671 15.6216 86.7562 16.305C86.7781 16.9996 86.6464 17.6046 86.372 18.1423Z" fill="#1F2020"/>
<path d="M102.604 10.8011C102.407 10.5995 102.187 10.409 101.946 10.2298C101.485 9.90485 100.98 9.64717 100.432 9.45671C99.8719 9.26625 99.2903 9.17663 98.6867 9.17663C97.5015 9.17663 96.4589 9.49032 95.548 10.1065C94.6372 10.7227 93.9239 11.5742 93.3971 12.6497C92.8703 13.7252 92.6179 14.9576 92.6179 16.3356C92.6179 17.7137 92.8813 18.9461 93.3971 20.0216C93.9129 21.0971 94.6372 21.9374 95.5371 22.5536C96.437 23.1698 97.4795 23.4723 98.6428 23.4723C99.2683 23.4723 99.8609 23.3826 100.432 23.2034C101.002 23.0241 101.496 22.7776 101.935 22.4751C102.286 22.2399 102.561 21.9598 102.813 21.6573L102.923 23.181L106.698 23.181L106.698 4.05664L102.626 4.05664L102.626 10.8123L102.604 10.8011ZM102.33 18.2738C102.089 18.8228 101.738 19.2597 101.277 19.5622C100.816 19.8759 100.278 20.0328 99.6524 20.0328C99.0269 20.0328 98.4891 19.8759 98.0392 19.5622C97.5893 19.2485 97.2381 18.8228 96.9857 18.2738C96.7333 17.7249 96.6016 17.0751 96.6016 16.3356C96.6016 15.5962 96.7333 14.924 96.9857 14.375C97.2381 13.8261 97.5893 13.3891 98.0392 13.0866C98.4891 12.7729 99.0269 12.6161 99.6524 12.6161C100.278 12.6161 100.816 12.7729 101.277 13.0866C101.738 13.4003 102.078 13.8261 102.33 14.375C102.572 14.924 102.692 15.585 102.692 16.3356C102.692 17.0863 102.572 17.7249 102.33 18.2738Z" fill="#1F2020"/>
<path d="M120.249 10.2888C119.317 9.68384 118.263 9.38135 117.056 9.38135C116.332 9.38135 115.629 9.52699 114.938 9.82949C114.257 10.132 113.676 10.5241 113.204 10.9946C113.017 11.1739 112.875 11.3644 112.743 11.5548L112.743 9.61662L110.109 9.61662L110.109 28.8754L112.743 28.8754L112.743 21.4027C112.831 21.5035 112.919 21.6043 113.017 21.7052C113.522 22.2093 114.137 22.6126 114.861 22.9375C115.585 23.2512 116.342 23.4193 117.111 23.4193C118.274 23.4193 119.327 23.1168 120.249 22.5006C121.171 21.8844 121.906 21.0554 122.444 19.991C122.971 18.9267 123.245 17.7279 123.245 16.3835C123.245 15.0391 122.971 13.8179 122.433 12.7648C121.895 11.7117 121.16 10.8826 120.227 10.2888L120.249 10.2888ZM120.216 18.7362C119.865 19.4309 119.382 19.9686 118.779 20.3607C118.175 20.7529 117.473 20.9545 116.705 20.9545C115.936 20.9545 115.212 20.7529 114.598 20.3607C113.983 19.9686 113.511 19.4197 113.149 18.7362C112.798 18.0528 112.622 17.2686 112.622 16.3835C112.622 15.4984 112.798 14.7254 113.149 14.0308C113.5 13.3474 113.983 12.7984 114.598 12.4175C115.201 12.0254 115.904 11.8349 116.705 11.8349C117.506 11.8349 118.197 12.0366 118.812 12.4287C119.415 12.8208 119.898 13.3586 120.238 14.042C120.579 14.7254 120.754 15.4984 120.754 16.3835C120.754 17.2686 120.579 18.0528 120.227 18.7362L120.216 18.7362Z" fill="#1F2020"/>
<path d="M135.526 10.2463C134.506 9.63013 133.353 9.32764 132.069 9.32764C130.785 9.32764 129.611 9.63013 128.591 10.2463C127.57 10.8625 126.758 11.6916 126.176 12.7559C125.584 13.8202 125.287 15.0302 125.287 16.3858C125.287 17.7414 125.584 18.9626 126.176 20.0157C126.769 21.0801 127.57 21.9091 128.591 22.5253C129.611 23.1415 130.774 23.444 132.069 23.444C133.364 23.444 134.506 23.1415 135.526 22.5253C136.547 21.9091 137.348 21.0801 137.941 20.0157C138.533 18.9514 138.83 17.7414 138.83 16.3858C138.83 15.0302 138.533 13.809 137.941 12.7559C137.348 11.6916 136.547 10.8625 135.526 10.2463ZM135.669 18.7498C135.318 19.4444 134.824 20.0045 134.198 20.4079C133.573 20.8112 132.86 21.0129 132.069 21.0129C131.279 21.0129 130.566 20.8112 129.929 20.4079C129.293 20.0045 128.799 19.4556 128.448 18.7498C128.097 18.0551 127.921 17.2597 127.943 16.3858C127.921 15.512 128.097 14.7165 128.448 14.0219C128.799 13.3273 129.293 12.7671 129.929 12.3638C130.566 11.9605 131.279 11.7588 132.069 11.7588C132.86 11.7588 133.573 11.9605 134.198 12.3526C134.824 12.7447 135.318 13.2937 135.669 13.9883C136.02 14.6829 136.196 15.4783 136.174 16.3746C136.196 17.2597 136.02 18.0439 135.669 18.7385L135.669 18.7498Z" fill="#1F2020"/>
<path d="M153.439 18.8468L150.279 11.755L148.709 11.755L145.516 18.9476L142.531 9.58154L139.897 9.61515L144.429 23.1826L146.207 23.1826L149.379 15.2841L152.759 23.1826L154.559 23.1826L159.036 9.61515L156.402 9.61515L153.439 18.8468Z" fill="#1F2020"/>
<path d="M171.358 11.1828C170.81 10.6003 170.162 10.1409 169.416 9.80482C168.67 9.46871 167.869 9.30066 167.013 9.30066C166.036 9.30066 165.125 9.47991 164.291 9.82722C163.457 10.1745 162.733 10.6787 162.14 11.3285C161.536 11.9783 161.075 12.7401 160.735 13.614C160.395 14.4991 160.23 15.4626 160.23 16.5381C160.23 17.8825 160.527 19.0701 161.13 20.1008C161.734 21.1315 162.557 21.9494 163.611 22.5432C164.664 23.1369 165.882 23.4394 167.243 23.4394C167.869 23.4394 168.505 23.3498 169.153 23.1706C169.8 22.9913 170.415 22.7448 170.996 22.4311C171.578 22.1174 172.072 21.7589 172.478 21.3444L171.161 19.4622C170.502 20.0448 169.888 20.4481 169.328 20.6722C168.757 20.8963 168.154 21.0083 167.495 21.0083C166.563 21.0083 165.751 20.8178 165.037 20.4369C164.324 20.056 163.775 19.5182 163.391 18.8236C163.095 18.297 162.919 17.6921 162.842 17.0311L173.015 17.0311L173.037 15.8883C173.048 14.936 172.917 14.0621 172.62 13.2667C172.324 12.4712 171.907 11.7766 171.358 11.1828ZM164.708 12.292C165.333 11.9335 166.102 11.7654 167.013 11.7654C167.583 11.7654 168.121 11.8999 168.604 12.1575C169.098 12.4152 169.504 12.7737 169.822 13.2219C170.14 13.67 170.327 14.1742 170.382 14.7455L170.382 14.9248L162.952 14.9248C163.029 14.5327 163.139 14.1742 163.292 13.8493C163.611 13.1659 164.082 12.6505 164.708 12.3032L164.708 12.292Z" fill="#1F2020"/>
<path d="M183.386 9.40606C183.122 9.35004 182.848 9.32764 182.562 9.32764C181.937 9.32764 181.333 9.48449 180.752 9.79818C180.17 10.1119 179.654 10.5264 179.204 11.0642C178.908 11.4227 178.689 11.8148 178.513 12.2181L178.513 9.61893L175.879 9.61893L175.879 23.1863L178.513 23.1863L178.513 15.6912C178.513 15.1871 178.601 14.7277 178.787 14.3132C178.974 13.8874 179.226 13.5177 179.534 13.204C179.841 12.8903 180.214 12.6327 180.62 12.4534C181.037 12.2741 181.465 12.1845 181.926 12.1845C182.156 12.1845 182.398 12.2181 182.65 12.2741C182.903 12.3302 183.122 12.4086 183.32 12.4982L184 9.60772C183.846 9.5405 183.638 9.47328 183.375 9.42847L183.386 9.40606Z" fill="#1F2020"/>
<path d="M29.3232 8.01048L22.5191 1.07553C21.8497 0.392121 20.9279 -4.56862e-08 19.9841 -4.36259e-08L3.58858 -7.83398e-09C1.61321 -3.5217e-09 3.59526e-09 1.64691 7.99761e-09 3.66353L4.45127e-08 20.3903C4.66405e-08 21.365 0.384099 22.2949 1.05353 22.9895L7.84658 29.9245C8.51601 30.6079 9.43785 31 10.3926 31L26.7772 31C28.7635 31 30.3657 29.3531 30.3657 27.3365L30.3657 10.6097C30.3657 9.63498 29.9926 8.7051 29.3122 8.02168L29.3232 8.01048ZM19.9841 1.68052C20.4999 1.68052 20.9937 1.89339 21.3559 2.2631L27.5563 8.59306L23.1118 8.59306L16.3406 1.68052L19.9731 1.68052L19.9841 1.68052ZM14.0141 1.68052L20.7852 8.59306L16.3406 8.59306L9.56954 1.68052L14.0141 1.68052ZM16.4175 10.2736L20.4999 10.2736C15.9236 12.4583 12.2034 16.2562 10.0634 20.9281L10.0634 16.8724C11.4132 14.3516 13.7946 11.8869 16.4175 10.2848L16.4175 10.2736ZM10.0634 13.8363L10.0634 11.1587C10.0634 10.6769 10.4475 10.2848 10.9194 10.2848L13.5203 10.2848C12.2253 11.3379 11.0401 12.5479 10.0634 13.8475L10.0634 13.8363ZM8.41724 28.1319L2.2168 21.802C1.85465 21.4322 1.64614 20.9281 1.64614 20.3903L1.64614 16.6932L8.41724 23.6057L8.41724 28.1319ZM8.41724 21.2306L1.64614 14.318L1.64614 9.78063L8.41724 16.6932L8.41724 21.2306ZM8.41724 11.1587L8.41724 14.3292L1.64614 7.40549L1.64614 3.66353C1.64614 3.42826 1.69003 3.20419 1.76685 2.99133L8.66965 10.0383C8.50504 10.3744 8.41724 10.7441 8.41724 11.1475L8.41724 11.1587ZM2.93012 1.80376C3.13863 1.72533 3.35812 1.68052 3.58858 1.68052L7.23203 1.68052L14.0031 8.59306L10.9194 8.59306C10.5243 8.59306 10.1621 8.69389 9.83292 8.85074L2.93012 1.80376ZM10.0634 28.3336L10.0634 27.0004C10.0634 26.5074 10.1073 26.0257 10.217 25.5439C11.9071 18.1608 17.6466 12.2454 24.8676 10.464C25.4383 10.3184 26.0309 10.2736 26.6235 10.2736L27.7209 10.2736C28.2806 10.2736 28.7306 10.7329 28.7306 11.3043L28.7306 13.5562C20.2365 13.9707 13.2569 20.6816 12.357 29.3195L11.0401 29.3195C10.5133 29.3195 10.0744 28.8713 10.0744 28.3336L10.0634 28.3336ZM21.8497 29.3195L18.5465 29.3195C20.0829 24.8381 24.0665 21.7235 28.7306 21.3986L28.7306 25.5439C25.9212 25.7792 23.3751 27.1684 21.8607 29.3307L21.8497 29.3195ZM16.8235 29.3195L14.0141 29.3195C14.903 21.6227 21.1364 15.6512 28.7306 15.2367L28.7306 19.7069C23.1666 20.0542 18.4367 23.8746 16.8235 29.3083L16.8235 29.3195ZM26.7772 29.3195L24.0226 29.3195C25.2408 28.1431 26.9088 27.3925 28.7306 27.2132L28.7306 27.3253C28.7306 28.4232 27.8636 29.3083 26.7881 29.3083L26.7772 29.3195Z" fill="#ED6B24"/>
<path d="M160.33 31.48C160.33 30.7867 160.48 30.17 160.78 29.63C161.08 29.0833 161.497 28.66 162.03 28.36C162.57 28.0533 163.18 27.9 163.86 27.9C164.693 27.9 165.407 28.12 166 28.56C166.593 29 166.99 29.6 167.19 30.36H165.31C165.17 30.0667 164.97 29.8433 164.71 29.69C164.457 29.5367 164.167 29.46 163.84 29.46C163.313 29.46 162.887 29.6433 162.56 30.01C162.233 30.3767 162.07 30.8667 162.07 31.48C162.07 32.0933 162.233 32.5833 162.56 32.95C162.887 33.3167 163.313 33.5 163.84 33.5C164.167 33.5 164.457 33.4233 164.71 33.27C164.97 33.1167 165.17 32.8933 165.31 32.6H167.19C166.99 33.36 166.593 33.96 166 34.4C165.407 34.8333 164.693 35.05 163.86 35.05C163.18 35.05 162.57 34.9 162.03 34.6C161.497 34.2933 161.08 33.87 160.78 33.33C160.48 32.79 160.33 32.1733 160.33 31.48ZM171.817 35L170.357 32.35H169.947V35H168.237V27.98H171.107C171.661 27.98 172.131 28.0767 172.517 28.27C172.911 28.4633 173.204 28.73 173.397 29.07C173.591 29.4033 173.687 29.7767 173.687 30.19C173.687 30.6567 173.554 31.0733 173.287 31.44C173.027 31.8067 172.641 32.0667 172.127 32.22L173.747 35H171.817ZM169.947 31.14H171.007C171.321 31.14 171.554 31.0633 171.707 30.91C171.867 30.7567 171.947 30.54 171.947 30.26C171.947 29.9933 171.867 29.7833 171.707 29.63C171.554 29.4767 171.321 29.4 171.007 29.4H169.947V31.14ZM182.711 27.98V35H181.001V30.79L179.431 35H178.051L176.471 30.78V35H174.761V27.98H176.781L178.751 32.84L180.701 27.98H182.711Z" fill="#1F2020"/>
</svg>
