<?xml version="1.0" encoding="UTF-8"?>
<svg id="Warstwa_1" xmlns="http://www.w3.org/2000/svg" version="1.1" viewBox="0 0 184 39">
  <!-- Generator: Adobe Illustrator 29.7.1, SVG Export Plug-In . SVG Version: 2.1.1 Build 8)  -->
  <defs>
    <style>
      .st0 {
        fill: #1f2020;
      }

      .st1 {
        fill: #ed6b24;
      }
    </style>
  </defs>
  <path class="st1" d="M29.3,8l-6.8-6.9C21.8.4,20.9,0,20,0H3.6C1.6,0,0,1.6,0,3.7v16.7c0,1,.4,1.9,1.1,2.6l6.8,6.9c.7.7,1.6,1.1,2.5,1.1h16.4c2,0,3.6-1.6,3.6-3.7V10.6c0-1-.4-1.9-1.1-2.6h0ZM20,1.7c.5,0,1,.2,1.4.6l6.2,6.3h-4.4l-6.8-6.9h3.6ZM14,1.7l6.8,6.9h-4.4L9.6,1.7h4.4ZM16.4,10.3h4.1c-4.6,2.2-8.3,6-10.4,10.7v-4.1c1.3-2.5,3.7-5,6.4-6.6h0ZM10.1,13.8v-2.7c0-.5.4-.9.9-.9h2.6c-1.3,1.1-2.5,2.3-3.5,3.6h0ZM8.4,28.1l-6.2-6.3c-.4-.4-.6-.9-.6-1.4v-3.7l6.8,6.9v4.5ZM8.4,21.2L1.6,14.3v-4.5l6.8,6.9v4.5ZM8.4,11.2v3.2L1.6,7.4v-3.7c0-.2,0-.5.1-.7l6.9,7c-.2.3-.3.7-.3,1.1h0ZM2.9,1.8c.2,0,.4-.1.7-.1h3.6l6.8,6.9h-3.1c-.4,0-.8.1-1.1.3L2.9,1.8ZM10.1,28.3v-1.3c0-.5,0-1,.2-1.5,1.7-7.4,7.4-13.3,14.7-15.1.6-.1,1.2-.2,1.8-.2h1.1c.6,0,1,.5,1,1v2.3c-8.5.4-15.5,7.1-16.4,15.8h-1.3c-.5,0-1-.4-1-1h0ZM21.8,29.3h-3.3c1.5-4.5,5.5-7.6,10.2-7.9v4.1c-2.8.2-5.4,1.6-6.9,3.8h0ZM16.8,29.3h-2.8c.9-7.7,7.1-13.7,14.7-14.1v4.5c-5.6.3-10.3,4.2-11.9,9.6h0ZM26.8,29.3h-2.8c1.2-1.2,2.9-1.9,4.7-2.1h0c0,1.2-.9,2.1-1.9,2.1h0Z"/>
  <path class="st0" d="M52.8,17.5l-2.6-6.2h-2.4l-2.5,6.2-2.2-8.1h-4.3l4.4,13.7h3l2.8-7,2.8,7h3l4.6-13.7h-4.3l-2.2,8ZM71.1,10.1c-1.1-.6-2.3-.9-3.7-.9s-2.6.3-3.7.9c-1.1.6-2,1.5-2.6,2.5-.6,1.1-1,2.3-1,3.7s.3,2.6,1,3.7c.6,1.1,1.5,1.9,2.6,2.5,1.1.6,2.3.9,3.7.9s2.6-.3,3.7-.9c1.1-.6,1.9-1.5,2.6-2.5.6-1.1.9-2.3.9-3.7s-.3-2.6-.9-3.7c-.6-1.1-1.5-1.9-2.6-2.5ZM70.1,18.1c-.3.5-.6,1-1.1,1.3-.5.3-1,.5-1.6.5s-1.2-.2-1.6-.5c-.5-.3-.9-.7-1.1-1.3-.3-.5-.4-1.1-.4-1.8,0-.7.1-1.3.4-1.8.3-.5.6-1,1.1-1.3.5-.3,1-.5,1.6-.5s1.2.2,1.6.5.8.7,1.1,1.3c.3.5.4,1.2.4,1.8,0,.7-.1,1.3-.4,1.8ZM87.4,10.1c-1.1-.6-2.3-.9-3.7-.9s-2.6.3-3.7.9c-1.1.6-2,1.5-2.6,2.5-.6,1.1-1,2.3-1,3.7s.3,2.6,1,3.7c.6,1.1,1.5,1.9,2.6,2.5,1.1.6,2.3.9,3.7.9s2.6-.3,3.7-.9c1.1-.6,1.9-1.5,2.6-2.5.6-1.1.9-2.3.9-3.7s-.3-2.6-.9-3.7c-.6-1.1-1.5-1.9-2.6-2.5ZM86.4,18.1c-.3.5-.6,1-1.1,1.3-.5.3-1,.5-1.6.5s-1.2-.2-1.6-.5c-.5-.3-.9-.7-1.1-1.3-.3-.5-.4-1.1-.4-1.8,0-.7.1-1.3.4-1.8.3-.5.6-1,1.1-1.3.5-.3,1-.5,1.6-.5s1.2.2,1.6.5.8.7,1.1,1.3c.3.5.4,1.2.4,1.8,0,.7-.1,1.3-.4,1.8ZM102.6,10.8c-.2-.2-.4-.4-.7-.6-.5-.3-1-.6-1.5-.8-.6-.2-1.1-.3-1.7-.3-1.2,0-2.2.3-3.1.9-.9.6-1.6,1.5-2.2,2.5-.5,1.1-.8,2.3-.8,3.7s.3,2.6.8,3.7c.5,1.1,1.2,1.9,2.1,2.5.9.6,1.9.9,3.1.9s1.2,0,1.8-.3c.6-.2,1.1-.4,1.5-.7.4-.2.6-.5.9-.8v1.5h3.9V4.1h-4.1v6.8h0ZM102.3,18.3c-.2.5-.6,1-1.1,1.3-.5.3-1,.5-1.6.5s-1.2-.2-1.6-.5-.8-.7-1.1-1.3c-.3-.5-.4-1.2-.4-1.9s.1-1.4.4-2c.3-.5.6-1,1.1-1.3.4-.3,1-.5,1.6-.5s1.2.2,1.6.5c.5.3.8.7,1.1,1.3.2.5.4,1.2.4,2s-.1,1.4-.4,1.9ZM120.2,10.3c-.9-.6-2-.9-3.2-.9s-1.4.1-2.1.4c-.7.3-1.3.7-1.7,1.2-.2.2-.3.4-.5.6v-1.9h-2.6v19.3h2.6v-7.5c0,.1.2.2.3.3.5.5,1.1.9,1.8,1.2.7.3,1.5.5,2.2.5,1.2,0,2.2-.3,3.1-.9.9-.6,1.7-1.4,2.2-2.5.5-1.1.8-2.3.8-3.6s-.3-2.6-.8-3.6-1.3-1.9-2.2-2.5h0ZM120.2,18.7c-.4.7-.8,1.2-1.4,1.6-.6.4-1.3.6-2.1.6s-1.5-.2-2.1-.6c-.6-.4-1.1-.9-1.4-1.6-.4-.7-.5-1.5-.5-2.4s.2-1.7.5-2.4c.4-.7.8-1.2,1.4-1.6.6-.4,1.3-.6,2.1-.6s1.5.2,2.1.6c.6.4,1.1.9,1.4,1.6.3.7.5,1.5.5,2.3s-.2,1.7-.5,2.4h0ZM135.5,10.2c-1-.6-2.2-.9-3.5-.9s-2.5.3-3.5.9c-1,.6-1.8,1.4-2.4,2.5-.6,1.1-.9,2.3-.9,3.6s.3,2.6.9,3.6c.6,1.1,1.4,1.9,2.4,2.5,1,.6,2.2.9,3.5.9s2.4-.3,3.5-.9c1-.6,1.8-1.4,2.4-2.5.6-1.1.9-2.3.9-3.6s-.3-2.6-.9-3.6c-.6-1.1-1.4-1.9-2.4-2.5ZM135.7,18.7c-.4.7-.8,1.3-1.5,1.7-.6.4-1.3.6-2.1.6s-1.5-.2-2.1-.6c-.6-.4-1.1-1-1.5-1.7-.4-.7-.5-1.5-.5-2.4,0-.9.2-1.7.5-2.4s.8-1.3,1.5-1.7c.6-.4,1.4-.6,2.1-.6s1.5.2,2.1.6c.6.4,1.1.9,1.5,1.6.4.7.5,1.5.5,2.4,0,.9-.2,1.7-.5,2.4h0ZM153.4,18.8l-3.2-7.1h-1.6l-3.2,7.2-3-9.4h-2.6s4.5,13.6,4.5,13.6h1.8l3.2-7.9,3.4,7.9h1.8l4.5-13.6h-2.6l-3,9.2ZM171.4,11.2c-.5-.6-1.2-1-1.9-1.4-.7-.3-1.5-.5-2.4-.5s-1.9.2-2.7.5c-.8.3-1.6.9-2.2,1.5-.6.6-1.1,1.4-1.4,2.3-.3.9-.5,1.8-.5,2.9s.3,2.5.9,3.6c.6,1,1.4,1.8,2.5,2.4,1.1.6,2.3.9,3.6.9s1.3,0,1.9-.3c.6-.2,1.3-.4,1.8-.7.6-.3,1.1-.7,1.5-1.1l-1.3-1.9c-.7.6-1.3,1-1.8,1.2-.6.2-1.2.3-1.8.3-.9,0-1.7-.2-2.5-.6-.7-.4-1.3-.9-1.6-1.6-.3-.5-.5-1.1-.5-1.8h10.2v-1.1c0-1,0-1.8-.4-2.6-.3-.8-.7-1.5-1.3-2.1ZM164.7,12.3c.6-.4,1.4-.5,2.3-.5s1.1.1,1.6.4c.5.3.9.6,1.2,1.1.3.4.5,1,.6,1.5v.2h-7.4c0-.4.2-.8.3-1.1.3-.7.8-1.2,1.4-1.5h0ZM183.4,9.4c-.3,0-.5,0-.8,0-.6,0-1.2.2-1.8.5-.6.3-1.1.7-1.5,1.3-.3.4-.5.8-.7,1.2v-2.6h-2.6v13.6h2.6v-7.5c0-.5,0-1,.3-1.4.2-.4.4-.8.7-1.1.3-.3.7-.6,1.1-.8.4-.2.8-.3,1.3-.3s.5,0,.7,0c.3,0,.5.1.7.2l.7-2.9c-.2,0-.4-.1-.6-.2h0ZM160.3,31.5c0-.7.1-1.3.4-1.9.3-.5.7-1,1.2-1.3.5-.3,1.1-.5,1.8-.5s1.5.2,2.1.7c.6.4,1,1,1.2,1.8h-1.9c-.1-.3-.3-.5-.6-.7-.3-.2-.5-.2-.9-.2-.5,0-1,.2-1.3.6-.3.4-.5.9-.5,1.5s.2,1.1.5,1.5.8.5,1.3.5.6,0,.9-.2c.3-.2.5-.4.6-.7h1.9c-.2.8-.6,1.4-1.2,1.8-.6.4-1.3.6-2.1.6s-1.3-.1-1.8-.5c-.5-.3-.9-.7-1.2-1.3-.3-.5-.4-1.2-.4-1.9ZM171.8,35l-1.5-2.7h-.4v2.7h-1.7v-7h2.9c.6,0,1,0,1.4.3.4.2.7.5.9.8.2.3.3.7.3,1.1s-.1.9-.4,1.2c-.3.4-.6.6-1.2.8l1.6,2.8h-1.9ZM169.9,31.1h1.1c.3,0,.5,0,.7-.2.2-.2.2-.4.2-.6s0-.5-.2-.6c-.2-.2-.4-.2-.7-.2h-1.1v1.7ZM182.7,28v7h-1.7v-4.2l-1.6,4.2h-1.4l-1.6-4.2v4.2h-1.7v-7h2l2,4.9,1.9-4.9h2Z"/>
</svg>