<svg width="310" height="53" viewBox="0 0 310 53" fill="none" xmlns="http://www.w3.org/2000/svg">
<path d="M88.7334 29.6654L84.3515 19.236L80.3393 19.236L76.1608 29.7414L72.3705 16.0445L65.1597 16.0445L72.6293 39.316L77.6584 39.316L82.3177 27.5188L86.9585 39.316L91.9875 39.316L99.716 16.0445L92.5052 16.0445L88.7334 29.6654Z" fill="#1F2020"/>
<path d="M119.572 17.1421C117.742 16.0973 115.634 15.5653 113.286 15.5653C110.938 15.5653 108.83 16.0973 107 17.1421C105.169 18.187 103.709 19.6307 102.655 21.4355C101.582 23.2402 101.046 25.3109 101.046 27.6665C101.046 30.0222 101.582 32.0739 102.655 33.8976C103.727 35.7024 105.169 37.1461 107 38.191C108.83 39.2358 110.938 39.7678 113.286 39.7678C115.634 39.7678 117.742 39.2358 119.572 38.191C121.403 37.1461 122.845 35.7024 123.899 33.8976C124.953 32.0929 125.471 30.0222 125.471 27.6665C125.471 25.3109 124.953 23.2592 123.899 21.4355C122.845 19.6307 121.403 18.187 119.572 17.1421ZM117.89 30.7631C117.428 31.675 116.818 32.3778 116.004 32.9098C115.209 33.4417 114.303 33.7076 113.268 33.7076C112.232 33.7076 111.326 33.4417 110.513 32.9098C109.699 32.3778 109.071 31.675 108.608 30.7631C108.146 29.8512 107.943 28.8254 107.961 27.6475C107.924 26.4887 108.146 25.4249 108.608 24.513C109.071 23.6011 109.699 22.8603 110.513 22.3473C111.326 21.8154 112.232 21.5495 113.268 21.5495C114.303 21.5495 115.209 21.8154 116.004 22.3473C116.799 22.8793 117.428 23.6011 117.89 24.513C118.352 25.4249 118.556 26.4887 118.537 27.6475C118.574 28.8254 118.352 29.8512 117.89 30.7631Z" fill="#1F2020"/>
<path d="M146.917 17.1421C145.086 16.0973 142.979 15.5653 140.63 15.5653C138.282 15.5653 136.175 16.0973 134.344 17.1421C132.514 18.187 131.053 19.6307 129.999 21.4355C128.927 23.2402 128.391 25.3109 128.391 27.6665C128.391 30.0222 128.927 32.0739 129.999 33.8976C131.072 35.7024 132.514 37.1461 134.344 38.191C136.175 39.2358 138.282 39.7678 140.63 39.7678C142.979 39.7678 145.086 39.2358 146.917 38.191C148.747 37.1461 150.189 35.7024 151.243 33.8976C152.297 32.0929 152.815 30.0222 152.815 27.6665C152.815 25.3109 152.297 23.2592 151.243 21.4355C150.189 19.6307 148.747 18.187 146.917 17.1421ZM145.234 30.7631C144.772 31.675 144.162 32.3778 143.348 32.9098C142.553 33.4417 141.647 33.7076 140.612 33.7076C139.577 33.7076 138.671 33.4417 137.857 32.9098C137.044 32.3778 136.415 31.675 135.953 30.7631C135.49 29.8512 135.287 28.8254 135.306 27.6475C135.269 26.4887 135.49 25.4249 135.953 24.513C136.415 23.6011 137.044 22.8603 137.857 22.3473C138.671 21.8154 139.577 21.5495 140.612 21.5495C141.647 21.5495 142.553 21.8154 143.348 22.3473C144.143 22.8793 144.772 23.6011 145.234 24.513C145.696 25.4249 145.9 26.4887 145.881 27.6475C145.918 28.8254 145.696 29.8512 145.234 30.7631Z" fill="#1F2020"/>
<path d="M172.582 18.315C172.249 17.973 171.879 17.6501 171.473 17.3461C170.696 16.7952 169.846 16.3583 168.921 16.0353C167.978 15.7124 166.998 15.5604 165.981 15.5604C163.985 15.5604 162.228 16.0923 160.694 17.1371C159.159 18.182 157.957 19.6258 157.07 21.4495C156.182 23.2732 155.757 25.3629 155.757 27.6996C155.757 30.0362 156.201 32.1259 157.07 33.9497C157.939 35.7734 159.159 37.1982 160.675 38.243C162.191 39.2879 163.948 39.8008 165.907 39.8008C166.961 39.8008 167.96 39.6488 168.921 39.3449C169.883 39.0409 170.715 38.623 171.454 38.11C172.046 37.7111 172.508 37.2362 172.933 36.7232L173.118 39.3069L179.479 39.3069L179.479 6.87866L172.619 6.87866L172.619 18.334L172.582 18.315ZM172.12 30.9861C171.713 31.917 171.121 32.6578 170.345 33.1708C169.568 33.7027 168.662 33.9687 167.608 33.9687C166.555 33.9687 165.649 33.7027 164.891 33.1708C164.133 32.6389 163.541 31.917 163.116 30.9861C162.69 30.0552 162.468 28.9534 162.468 27.6996C162.468 26.4458 162.69 25.3059 163.116 24.3751C163.541 23.4442 164.133 22.7033 164.891 22.1904C165.649 21.6585 166.555 21.3925 167.608 21.3925C168.662 21.3925 169.568 21.6585 170.345 22.1904C171.121 22.7223 171.695 23.4442 172.12 24.3751C172.527 25.3059 172.73 26.4268 172.73 27.6996C172.73 28.9724 172.527 30.0552 172.12 30.9861Z" fill="#1F2020"/>
<path d="M202.31 17.4463C200.738 16.4205 198.963 15.9076 196.929 15.9076C195.709 15.9076 194.526 16.1545 193.361 16.6675C192.215 17.1804 191.235 17.8453 190.44 18.6432C190.125 18.9471 189.885 19.2701 189.663 19.593L189.663 16.3065L185.226 16.3065L185.226 48.9627L189.663 48.9627L189.663 36.2915C189.811 36.4625 189.959 36.6335 190.125 36.8045C190.976 37.6593 192.011 38.3432 193.232 38.8942C194.452 39.4261 195.728 39.711 197.022 39.711C198.982 39.711 200.757 39.1981 202.31 38.1533C203.863 37.1084 205.102 35.7026 206.008 33.8979C206.895 32.0932 207.357 30.0605 207.357 27.7808C207.357 25.5011 206.895 23.4304 205.989 21.6447C205.083 19.859 203.844 18.4532 202.273 17.4463L202.31 17.4463ZM202.254 31.7702C201.663 32.948 200.849 33.8599 199.832 34.5248C198.815 35.1897 197.632 35.5317 196.338 35.5317C195.044 35.5317 193.823 35.1897 192.788 34.5248C191.752 33.8599 190.957 32.929 190.347 31.7702C189.756 30.6114 189.46 29.2816 189.46 27.7808C189.46 26.28 189.756 24.9692 190.347 23.7914C190.939 22.6326 191.752 21.7017 192.788 21.0558C193.805 20.3909 194.988 20.0679 196.338 20.0679C197.687 20.0679 198.852 20.4099 199.888 21.0748C200.905 21.7397 201.718 22.6516 202.291 23.8104C202.864 24.9692 203.16 26.28 203.16 27.7808C203.16 29.2816 202.864 30.6114 202.273 31.7702L202.254 31.7702Z" fill="#1F2020"/>
<path d="M228.048 17.3741C226.329 16.3293 224.387 15.8164 222.224 15.8164C220.061 15.8164 218.083 16.3293 216.363 17.3741C214.644 18.419 213.275 19.8248 212.295 21.6295C211.297 23.4342 210.798 25.4859 210.798 27.7846C210.798 30.0833 211.297 32.154 212.295 33.9397C213.294 35.7444 214.644 37.1502 216.363 38.1951C218.083 39.2399 220.042 39.7528 222.224 39.7528C224.406 39.7528 226.329 39.2399 228.048 38.1951C229.768 37.1502 231.117 35.7444 232.116 33.9397C233.114 32.135 233.613 30.0833 233.613 27.7846C233.613 25.4859 233.114 23.4153 232.116 21.6295C231.117 19.8248 229.768 18.419 228.048 17.3741ZM228.289 31.793C227.697 32.9708 226.865 33.9207 225.811 34.6046C224.757 35.2885 223.555 35.6304 222.224 35.6304C220.893 35.6304 219.691 35.2885 218.619 34.6046C217.546 33.9207 216.714 32.9898 216.123 31.793C215.531 30.6152 215.235 29.2664 215.272 27.7846C215.235 26.3028 215.531 24.954 216.123 23.7762C216.714 22.5984 217.546 21.6485 218.619 20.9646C219.691 20.2807 220.893 19.9388 222.224 19.9388C223.555 19.9388 224.757 20.2807 225.811 20.9456C226.865 21.6105 227.697 22.5414 228.289 23.7192C228.88 24.897 229.176 26.2458 229.139 27.7656C229.176 29.2664 228.88 30.5962 228.289 31.774L228.289 31.793Z" fill="#1F2020"/>
<path d="M258.228 31.9576L252.903 19.9324L250.259 19.9324L244.879 32.1286L239.849 16.247L235.412 16.304L243.048 39.3096L246.043 39.3096L251.387 25.9165L257.081 39.3096L260.114 39.3096L267.657 16.304L263.22 16.304L258.228 31.9576Z" fill="#1F2020"/>
<path d="M288.418 18.9622C287.493 17.9744 286.402 17.1955 285.145 16.6256C283.888 16.0556 282.538 15.7707 281.096 15.7707C279.45 15.7707 277.916 16.0746 276.51 16.6636C275.105 17.2525 273.885 18.1073 272.887 19.2092C271.87 20.311 271.093 21.6028 270.52 23.0846C269.947 24.5854 269.669 26.2191 269.669 28.0429C269.669 30.3225 270.169 32.3362 271.186 34.084C272.203 35.8317 273.589 37.2185 275.364 38.2254C277.139 39.2322 279.191 39.7451 281.484 39.7451C282.538 39.7451 283.61 39.5932 284.701 39.2892C285.792 38.9853 286.827 38.5673 287.807 38.0354C288.787 37.5035 289.619 36.8956 290.303 36.1927L288.085 33.0011C286.975 33.989 285.94 34.6729 284.997 35.0528C284.036 35.4328 283.019 35.6228 281.909 35.6228C280.338 35.6228 278.97 35.2998 277.768 34.6539C276.566 34.008 275.642 33.0961 274.994 31.9183C274.495 31.0254 274.199 29.9996 274.07 28.8787L291.209 28.8787L291.246 26.941C291.265 25.3263 291.043 23.8445 290.544 22.4957C290.045 21.1469 289.342 19.9691 288.418 18.9622ZM277.213 20.8429C278.267 20.235 279.561 19.9501 281.096 19.9501C282.057 19.9501 282.963 20.178 283.777 20.615C284.609 21.0519 285.293 21.6598 285.829 22.4197C286.365 23.1796 286.68 24.0345 286.772 25.0033L286.772 25.3073L274.255 25.3073C274.384 24.6424 274.569 24.0345 274.828 23.4835C275.364 22.3247 276.159 21.4508 277.213 20.8619L277.213 20.8429Z" fill="#1F2020"/>
<path d="M308.681 15.9494C308.237 15.8544 307.775 15.8164 307.294 15.8164C306.24 15.8164 305.223 16.0823 304.243 16.6143C303.263 17.1462 302.394 17.8491 301.636 18.7609C301.137 19.3688 300.767 20.0338 300.471 20.7176L300.471 16.3103L296.034 16.3103L296.034 39.3159L300.471 39.3159L300.471 26.6068C300.471 25.7519 300.619 24.973 300.934 24.2701C301.248 23.5482 301.673 22.9213 302.191 22.3894C302.709 21.8575 303.337 21.4205 304.021 21.1166C304.724 20.8126 305.445 20.6607 306.222 20.6607C306.61 20.6607 307.017 20.7176 307.442 20.8126C307.867 20.9076 308.237 21.0406 308.57 21.1926L309.716 16.2913C309.457 16.1773 309.106 16.0633 308.662 15.9874L308.681 15.9494Z" fill="#1F2020"/>
<path d="M49.4032 13.583L37.9399 1.82373C36.812 0.664901 35.2589 -7.69714e-08 33.6689 -7.35002e-08L6.04597 -1.31986e-08C2.71791 -5.9333e-09 6.09631e-09 2.79259 1.35612e-08 6.21208L7.54781e-08 34.5749C7.90861e-08 36.2276 0.647123 37.8044 1.77496 38.9822L13.2198 50.7415C14.3476 51.9003 15.9007 52.5652 17.5093 52.5652L45.1137 52.5652C48.4602 52.5652 51.1597 49.7726 51.1597 46.3531L51.1597 17.9903C51.1597 16.3376 50.531 14.7608 49.3847 13.602L49.4032 13.583ZM33.6689 2.84958C34.5379 2.84958 35.3699 3.21052 35.98 3.83743L46.4264 14.5708L38.9383 14.5708L27.5304 2.84958L33.6504 2.84958L33.6689 2.84958ZM23.6107 2.84958L35.0186 14.5708L27.5304 14.5708L16.1226 2.84958L23.6107 2.84958ZM27.6599 17.4204L34.5379 17.4204C26.8279 21.1249 20.56 27.5649 16.9546 35.4867L16.9546 28.6098C19.2288 24.3354 23.2409 20.156 27.6599 17.4394L27.6599 17.4204ZM16.9546 23.4615L16.9546 18.9212C16.9546 18.1043 17.6017 17.4394 18.3968 17.4394L22.7787 17.4394C20.597 19.2252 18.6001 21.2768 16.9546 23.4805L16.9546 23.4615ZM14.1812 47.7019L3.73482 36.9685C3.12468 36.3416 2.77338 35.4867 2.77338 34.5749L2.77338 28.3058L14.1812 40.0271L14.1812 47.7019ZM14.1812 35.9997L2.77338 24.2784L2.77338 16.5845L14.1812 28.3058L14.1812 35.9997ZM14.1812 18.9212L14.1812 24.2974L2.77338 12.5571L2.77338 6.21208C2.77338 5.81314 2.84734 5.4332 2.97676 5.07225L14.6065 17.0215C14.3291 17.5914 14.1812 18.2183 14.1812 18.9022L14.1812 18.9212ZM4.93662 3.05855C5.28792 2.92557 5.6577 2.84958 6.04597 2.84958L12.1844 2.84958L23.5922 14.5708L18.3968 14.5708C17.7312 14.5708 17.121 14.7418 16.5663 15.0078L4.93662 3.05855ZM16.9546 48.0439L16.9546 45.7832C16.9546 44.9473 17.0286 44.1305 17.2135 43.3136C20.0608 30.7944 29.7307 20.7639 41.8966 17.7434C42.858 17.4964 43.8564 17.4204 44.8548 17.4204L46.7038 17.4204C47.6467 17.4204 48.4048 18.1993 48.4048 19.1682L48.4048 22.9866C34.0941 23.6895 22.335 35.0688 20.8189 49.7156L18.6002 49.7156C17.7127 49.7156 16.9731 48.9558 16.9731 48.0439L16.9546 48.0439ZM36.812 49.7156L31.2468 49.7156C33.8353 42.1168 40.5468 36.8355 48.4048 36.2846L48.4048 43.3136C43.6715 43.7125 39.382 46.0682 36.8305 49.7346L36.812 49.7156ZM28.344 49.7156L23.6107 49.7156C25.1084 36.6646 35.6102 26.5391 48.4048 25.8362L48.4048 33.4161C39.0307 34.005 31.0619 40.483 28.344 49.6966L28.344 49.7156ZM45.1137 49.7156L40.4729 49.7156C42.5252 47.7209 45.3356 46.4481 48.4048 46.1442L48.4048 46.3341C48.4048 48.1959 46.9441 49.6966 45.1322 49.6966L45.1137 49.7156Z" fill="#ED6B24"/>
</svg>
