<?xml version="1.0" encoding="UTF-8"?>
<svg id="Warstwa_1" xmlns="http://www.w3.org/2000/svg" version="1.1" viewBox="0 0 46.4 38.3">
  <!-- Generator: Adobe Illustrator 29.7.1, SVG Export Plug-In . SVG Version: 2.1.1 Build 8)  -->
  <defs>
    <style>
      .st0 {
        fill: #ed6b24;
      }
    </style>
  </defs>
  <path d="M46.4,35.7v-9.2h-2.6l-2.6,6.3-2.5-6.3h-2.6v9.2h2.2v-5.5l2,5.5h1.8l2.1-5.5v5.5h2.2ZM26.2,32.5h-2.4c-.2.4-.4.7-.8.9-.3.2-.7.3-1.1.3-.7,0-1.2-.2-1.7-.7-.4-.5-.6-1.1-.6-1.9s.2-1.4.6-1.9,1-.7,1.7-.7.8,0,1.1.3c.3.2.6.5.8.9h2.4c-.3-1-.8-1.8-1.5-2.3-.8-.6-1.7-.9-2.8-.9s-1.7.2-2.4.6c-.7.4-1.2.9-1.6,1.7-.4.7-.6,1.5-.6,2.4s.2,1.7.6,2.4.9,1.3,1.6,1.7,1.5.6,2.4.6,2-.3,2.8-.8c.8-.6,1.3-1.4,1.5-2.3v-.3ZM33.1,26.9c-.5-.3-1.1-.4-1.8-.4h-3.7v9.1h2.2v-3.4h.5l1.9,3.4h2.5l-2.1-3.6c.7-.2,1.2-.5,1.5-1s.5-1,.5-1.6,0-1-.4-1.5c-.3-.4-.6-.8-1.1-1ZM31.2,30.6h-1.4v-2.3h1.4c.4,0,.7,0,.9.3.2.2.3.5.3.8s-.1.6-.3.8-.5.4-.9.4Z"/>
  <path class="st0" d="M26.1,37.2v-1h-.7c-1,.7-2.2,1-3.5,1s-2.2-.3-3.1-.8c-.1,0-.2-.2-.4-.2h-1.1c0-.3,0-.5.1-.8-.3-.3-.6-.7-.9-1.2s-.5-1.1-.6-1.7c-.3,1.2-.6,2.4-.7,3.7h-1.6c-.7,0-1.2-.6-1.2-1.2h0v-1.6c0-.6,0-1.2.2-1.8,2.1-9.1,9.2-16.4,18.1-18.6.7-.2,1.4-.2,2.2-.2h1.4c.7,0,1.2.6,1.2,1.3v2.8c-6.5.3-12.3,3.6-16,8.7.8-.3,1.6-.5,2.4-.5s.4,0,.6,0c3.3-3.6,7.9-5.9,13-6.2v5.5c-1.3,0-2.6.3-3.9.7.8,0,1.6.2,2.2.5.3.1.5.3.8.5v-1h2.9v-11.9c0-1.2-.5-2.4-1.3-3.2h0L27.8,1.3C27,.5,25.8,0,24.7,0H4.4C2,0,0,2,0,4.5v20.6c0,1.2.5,2.4,1.3,3.2l8.4,8.6c.8.8,2,1.3,3.1,1.3h20.2c1.1,0,2.1-.4,2.9-1.1h-9.8ZM12.4,25.8v-5c1.7-3.1,4.6-6.2,7.8-8.1h5c-5.6,2.7-10.2,7.4-12.9,13.1h0ZM12.4,17.1h0v-3.3c0-.6.5-1.1,1.1-1.1h3.2c-1.6,1.3-3.1,2.8-4.3,4.4ZM24.7,2.1h0c.6,0,1.2.3,1.7.7l7.7,7.8h-5.5L20.2,2.1h4.5ZM17.3,2.1l8.4,8.5h-5.5L11.8,2.1h5.5ZM10.4,34.7l-7.7-7.8c-.4-.5-.7-1.1-.7-1.7v-4.6l8.4,8.5v5.6ZM10.4,26.2L2,17.7v-5.6l8.4,8.5v5.6ZM10.4,13.8h0v3.9L2,9.1v-4.6c0-.3,0-.6,0-.8l8.5,8.7c-.2.4-.3.9-.3,1.4h0ZM3.6,2.2c.3,0,.5-.2.8-.2h4.5l8.4,8.5h-3.8c-.5,0-.9.1-1.3.3L3.6,2.2Z"/>
</svg>