<svg width="64" height="64" viewBox="0 0 64 64" fill="none" xmlns="http://www.w3.org/2000/svg">
<g clip-path="url(#clip0_4492_1462)">
<path d="M20.1311 29.8033C20.1311 29.8033 21.7618 28.889 24.1127 30.3978" stroke="#ED6B24" stroke-linecap="round" stroke-linejoin="round"/>
<path d="M32 63.2001C49.2313 63.2001 63.2001 49.2313 63.2001 32C63.2001 14.7688 49.2313 0.800049 32 0.800049C14.7688 0.800049 0.800049 14.7688 0.800049 32C0.800049 49.2313 14.7688 63.2001 32 63.2001Z" fill="white" stroke="#ED6B24"/>
<path fill-rule="evenodd" clip-rule="evenodd" d="M30.8313 9.6001C35.2975 9.6001 39.0454 12.4221 40.0718 16.2284C42.319 14.5269 45.0918 14.0099 47.5031 15.1249C51.0382 16.7595 52.5764 21.3369 51.2619 25.7603C53.4897 27.0622 54.9942 29.5388 54.9942 32.3798C54.9942 36.5735 51.7159 39.9731 47.6721 39.9731C45.7556 39.9731 44.011 39.2094 42.7059 37.9596C40.7567 41.862 36.827 44.5289 32.2966 44.5289C28.027 44.5289 24.2908 42.1603 22.2433 38.6209C20.9412 39.4734 19.3596 39.9731 17.6543 39.9731C13.2061 39.9731 9.6001 36.5734 9.6001 32.3798C9.6001 29.5582 11.2326 27.0959 13.6558 25.787C12.8224 24.5964 12.4165 23.2127 12.5955 21.8001C13.0433 18.2659 16.9817 15.888 21.3919 16.4891C21.435 16.4948 21.478 16.5011 21.5207 16.5073C22.4355 12.5608 26.2564 9.6001 30.8313 9.6001Z" fill="#ED6B24"/>
<path d="M50.4 39.2C50.4 40.9674 48.9674 42.4 47.2 42.4C45.4326 42.4 44 40.9674 44 39.2C44 37.4326 45.4326 36 47.2 36C48.9674 36 50.4 37.4326 50.4 39.2Z" fill="white" stroke="#ED6B24"/>
<path d="M20.7999 39.2C20.7999 40.9674 19.3673 42.4 17.5999 42.4C15.8326 42.4 14.3999 40.9674 14.3999 39.2C14.3999 37.4326 15.8326 36 17.5999 36C19.3673 36 20.7999 37.4326 20.7999 39.2Z" fill="white" stroke="#ED6B24"/>
<path d="M46.8714 38.4543C46.8714 46.8466 40.3181 53.6 32.2951 53.6C24.272 53.6 17.7188 46.8466 17.7188 38.4543C17.7188 30.0618 24.272 23.3083 32.2951 23.3083C40.3181 23.3083 46.8714 30.0618 46.8714 38.4543Z" fill="white" stroke="#ED6B24"/>
<path d="M27.2 46.3999C27.2 46.3999 32.236 49.9999 36.8 46.3999" stroke="#ED6B24" stroke-linecap="round"/>
<path d="M25.8374 31.6276C30.8603 32.8816 35.5046 31.4321 36.2108 28.39C36.917 25.348 33.4177 21.8654 28.3948 20.6114C23.3719 19.3574 18.7276 20.8069 18.0214 23.8489C17.3152 26.891 20.8146 30.3736 25.8374 31.6276Z" fill="#ED6B24"/>
<path d="M35.9553 28.4106C40.9782 29.6646 45.5402 28.5698 46.1448 25.9654C46.7494 23.3609 43.1677 20.233 38.1448 18.9791C33.1219 17.7251 28.5599 18.8198 27.9553 21.4243C27.3507 24.0287 30.9324 27.1566 35.9553 28.4106Z" fill="#ED6B24"/>
<path d="M32.2988 34.6577C32.2988 34.6577 30.3953 39.3667 30.8343 40.7323C31.2005 41.8713 33.397 42.251 33.397 42.251" stroke="#ED6B24" stroke-linecap="round"/>
<path d="M37.4187 34.2781C37.4187 34.2781 39.6153 34.2781 41.0798 35.4171" stroke="#ED6B24" stroke-linecap="round"/>
<path d="M26.4373 34.2781C26.4373 34.2781 24.2408 34.2781 22.7764 35.4171" stroke="#ED6B24" stroke-linecap="round"/>
<path d="M38.3999 52.8C38.3999 52.8 38.3999 58.1333 41.5999 60.8" stroke="#ED6B24" stroke-linecap="round"/>
<path d="M27.1999 52.8C27.1999 52.8 27.1999 58.9333 22.3999 61.6" stroke="#ED6B24" stroke-linecap="round"/>
</g>
<defs>
<clipPath id="clip0_4492_1462">
<rect width="64" height="64" fill="white"/>
</clipPath>
</defs>
</svg>
