<?xml version="1.0" encoding="UTF-8"?>
<svg id="Warstwa_2" data-name="Warstwa 2" xmlns="http://www.w3.org/2000/svg" xmlns:xlink="http://www.w3.org/1999/xlink" viewBox="0 0 64 64">
  <defs>
    <style>
      .cls-1, .cls-2 {
        fill: #2f9aea;
      }

      .cls-3, .cls-4, .cls-5 {
        fill: none;
      }

      .cls-3, .cls-6, .cls-5 {
        stroke: #2f9aea;
      }

      .cls-3, .cls-5 {
        stroke-linecap: round;
      }

      .cls-2 {
        fill-rule: evenodd;
      }

      .cls-6 {
        fill: #fff;
      }

      .cls-7 {
        clip-path: url(#clippath);
      }

      .cls-5 {
        stroke-linejoin: round;
      }
    </style>
    <clipPath id="clippath">
      <rect class="cls-4" width="64" height="64"/>
    </clipPath>
  </defs>
  <g id="Warstwa_1-2" data-name="Warstwa 1">
    <g class="cls-7">
      <g>
        <path class="cls-5" d="M20.13,29.8s1.63-.91,3.98.59"/>
        <path class="cls-6" d="M32,63.2c17.23,0,31.2-13.97,31.2-31.2S49.23.8,32,.8.8,14.77.8,32s13.97,31.2,31.2,31.2Z"/>
        <path class="cls-2" d="M30.83,9.6c4.47,0,8.21,2.82,9.24,6.63,2.25-1.7,5.02-2.22,7.43-1.1,3.54,1.63,5.07,6.21,3.76,10.64,2.23,1.3,3.73,3.78,3.73,6.62,0,4.19-3.28,7.59-7.32,7.59-1.92,0-3.66-.76-4.97-2.01-1.95,3.9-5.88,6.57-10.41,6.57-4.27,0-8.01-2.37-10.05-5.91-1.3.85-2.88,1.35-4.59,1.35-4.45,0-8.05-3.4-8.05-7.59,0-2.82,1.63-5.28,4.06-6.59-.83-1.19-1.24-2.57-1.06-3.99.45-3.53,4.39-5.91,8.8-5.31.04,0,.09.01.13.02.91-3.95,4.74-6.91,9.31-6.91Z"/>
        <path class="cls-6" d="M50.4,39.2c0,1.77-1.43,3.2-3.2,3.2s-3.2-1.43-3.2-3.2,1.43-3.2,3.2-3.2,3.2,1.43,3.2,3.2Z"/>
        <path class="cls-6" d="M20.8,39.2c0,1.77-1.43,3.2-3.2,3.2s-3.2-1.43-3.2-3.2,1.43-3.2,3.2-3.2,3.2,1.43,3.2,3.2Z"/>
        <path class="cls-6" d="M46.87,38.45c0,8.39-6.55,15.15-14.58,15.15s-14.58-6.75-14.58-15.15,6.55-15.15,14.58-15.15,14.58,6.75,14.58,15.15Z"/>
        <path class="cls-3" d="M27.2,46.4s5.04,3.6,9.6,0"/>
        <path class="cls-1" d="M25.84,31.63c5.02,1.25,9.67-.2,10.37-3.24.71-3.04-2.79-6.52-7.82-7.78-5.02-1.25-9.67.2-10.37,3.24-.71,3.04,2.79,6.52,7.82,7.78Z"/>
        <path class="cls-1" d="M35.96,28.41c5.02,1.25,9.58.16,10.19-2.45.6-2.6-2.98-5.73-8-6.99-5.02-1.25-9.58-.16-10.19,2.45-.6,2.6,2.98,5.73,8,6.99Z"/>
        <path class="cls-3" d="M32.3,34.66s-1.9,4.71-1.46,6.07c.37,1.14,2.56,1.52,2.56,1.52"/>
        <path class="cls-3" d="M37.42,34.28s2.2,0,3.66,1.14"/>
        <path class="cls-3" d="M26.44,34.28s-2.2,0-3.66,1.14"/>
        <path class="cls-3" d="M38.4,52.8s0,5.33,3.2,8"/>
        <path class="cls-3" d="M27.2,52.8s0,6.13-4.8,8.8"/>
      </g>
    </g>
  </g>
</svg>