<?xml version="1.0" encoding="UTF-8"?>
<svg id="Warstwa_2" data-name="Warstwa 2" xmlns="http://www.w3.org/2000/svg" viewBox="0 0 63.4 63.4">
  <defs>
    <style>
      .cls-1 {
        fill: #f464d9;
      }
    </style>
  </defs>
  <g id="Warstwa_1-2" data-name="Warstwa 1">
    <g>
      <path class="cls-1" d="M23.81,30.6c-.09,0-.19-.03-.27-.08-2.04-1.31-3.41-.61-3.47-.58-.24.13-.54.04-.68-.2-.13-.24-.05-.54.19-.67.08-.04,1.92-1.04,4.5.61.23.15.3.46.15.69-.1.15-.26.23-.42.23Z"/>
      <path class="cls-1" d="M31.7,63.4C14.22,63.4,0,49.18,0,31.7S14.22,0,31.7,0s31.7,14.22,31.7,31.7-14.22,31.7-31.7,31.7ZM31.7,1C14.77,1,1,14.77,1,31.7s13.77,30.7,30.7,30.7,30.7-13.77,30.7-30.7S48.63,1,31.7,1Z"/>
      <path class="cls-1" d="M46.9,42.6c-2.04,0-3.7-1.66-3.7-3.7s1.66-3.7,3.7-3.7,3.7,1.66,3.7,3.7-1.66,3.7-3.7,3.7ZM46.9,36.2c-1.49,0-2.7,1.21-2.7,2.7s1.21,2.7,2.7,2.7,2.7-1.21,2.7-2.7-1.21-2.7-2.7-2.7Z"/>
      <path class="cls-1" d="M17.3,42.6c-2.04,0-3.7-1.66-3.7-3.7s1.66-3.7,3.7-3.7,3.7,1.66,3.7,3.7-1.66,3.7-3.7,3.7ZM17.3,36.2c-1.49,0-2.7,1.21-2.7,2.7s1.21,2.7,2.7,2.7,2.7-1.21,2.7-2.7-1.21-2.7-2.7-2.7Z"/>
      <path class="cls-1" d="M32.01,48.19c-2.99,0-5.36-1.66-5.4-1.68-.22-.16-.28-.47-.12-.7.16-.23.47-.28.7-.12.19.14,4.79,3.33,9,.01.22-.17.53-.13.7.08.17.22.13.53-.08.7-1.61,1.27-3.29,1.7-4.8,1.7Z"/>
      <path class="cls-1" d="M25.54,31.33c5.02,1.25,9.67-.2,10.37-3.24.71-3.04-2.79-6.52-7.82-7.78-5.02-1.25-9.67.2-10.37,3.24-.71,3.04,2.79,6.52,7.82,7.78Z"/>
      <path class="cls-1" d="M35.66,28.11c5.02,1.25,9.58.16,10.19-2.45.6-2.6-2.98-5.73-8-6.99-5.02-1.25-9.58-.16-10.19,2.45-.6,2.6,2.98,5.73,8,6.99Z"/>
      <path class="cls-1" d="M33.1,42.45s-.06,0-.09,0c-.26-.04-2.51-.47-2.95-1.86-.47-1.46,1.15-5.6,1.48-6.42.1-.26.39-.38.65-.28.26.1.38.4.28.65-.76,1.89-1.72,4.91-1.45,5.73.2.62,1.44,1.05,2.17,1.18.27.05.45.31.41.58-.04.24-.25.41-.49.41Z"/>
      <path class="cls-1" d="M40.78,35.62c-.11,0-.22-.03-.31-.11-1.31-1.02-3.33-1.03-3.36-1.03-.28,0-.5-.22-.5-.5,0-.28.22-.5.5-.5.1,0,2.39.01,3.97,1.25.22.17.26.48.09.7-.1.13-.25.19-.39.19Z"/>
      <path class="cls-1" d="M22.48,35.62c-.15,0-.3-.07-.4-.19-.17-.22-.13-.53.09-.7,1.58-1.23,3.87-1.25,3.97-1.25.28,0,.5.22.5.5,0,.28-.22.5-.5.5-.02,0-2.05.02-3.35,1.03-.09.07-.2.11-.31.11Z"/>
      <path class="cls-1" d="M54.69,32.08c0-2.84-1.5-5.32-3.73-6.62,1.31-4.42-.22-9-3.76-10.64-2.41-1.11-5.18-.6-7.43,1.1-1.03-3.81-4.77-6.63-9.24-6.63s-8.4,2.96-9.31,6.91c-.04,0-.09-.01-.13-.02-4.41-.6-8.35,1.78-8.8,5.31-.18,1.41.23,2.8,1.06,3.99-2.42,1.31-4.06,3.77-4.06,6.59,0,3.23-1.06,12.22.13,19.29,3.36,3.26,7.88,6.8,12.92,8.52,3.99-2.32,4.38-7.29,4.42-8.15-5.18-2.16-8.85-7.43-8.85-13.59,0-8.08,6.31-14.65,14.08-14.65s14.08,6.57,14.08,14.65-6.31,14.65-14.08,14.65c-1.48,0-2.9-.24-4.24-.68-.02.25-.05.59-.11.99,1.38.44,2.84.69,4.36.69,1.93,0,3.78-.39,5.48-1.08h0s0,.02,0,.02c0,0,.01,0,.02,0,.28,0,.5.22.5.5,0,.05.04,3.91,3.02,6.4.08.06.12.15.15.24,5.15-1.74,9.69-4.84,13.15-8.89,1.09-5.68.38-15.7.38-18.89Z"/>
    </g>
  </g>
</svg>