<svg width="39" height="18" viewBox="0 0 39 18" fill="none" xmlns="http://www.w3.org/2000/svg">
<path d="M35.0639 6.24912L11.6832 0.842202C11.5655 0.814809 11.4423 0.826314 11.3323 0.874526L1.11513 5.3298C0.91245 5.41801 0.78418 5.61524 0.78418 5.83055V10.5762C0.78418 10.8288 0.959093 11.0485 1.20786 11.1087L27.2672 17.3698V17.3687C27.3105 17.3791 27.3544 17.3851 27.3988 17.3851C27.4827 17.3851 27.5671 17.3665 27.6448 17.3287L37.862 12.3486C38.0514 12.256 38.1713 12.0658 38.1713 11.8571V10.1171C38.1713 8.26309 36.8936 6.67263 35.0639 6.24912ZM1.89474 6.52196L24.593 11.7711C25.9179 12.0774 26.8436 13.2295 26.8436 14.5718V16.1398L1.89474 10.1456V6.52141V6.52196ZM37.0607 11.5163L27.9541 15.9552V14.5718C27.9541 12.7178 26.6764 11.1268 24.8468 10.7038L3.08027 5.67057L11.6111 1.95109L34.8102 7.31582C36.1351 7.62208 37.0607 8.77425 37.0607 10.1165V11.5163Z" fill="#ED6B24"/>
</svg>
